<?xml version="1.0" encoding="UTF-8"?>
<svg id="Capa_2" data-name="Capa 2" xmlns="http://www.w3.org/2000/svg" viewBox="0 0 319.89 318.13">
  <defs>
    <style>
      .cls-1 {
        fill: #1e4088;
      }

      .cls-2 {
        fill: #93caef;
      }

      .cls-3 {
        fill: #fefeff;
      }

      .cls-4 {
        fill: #5291ce;
      }

      .cls-5 {
        fill: #80bee9;
      }

      .cls-6 {
        fill: #4e8ecb;
      }

      .cls-7 {
        fill: #1a428d;
      }

      .cls-8 {
        fill: #1f4087;
      }

      .cls-9 {
        fill: #3076bb;
      }

      .cls-10 {
        fill: #1d3f89;
      }

      .cls-11 {
        fill: #67a4da;
      }

      .cls-12 {
        fill: #203f84;
      }

      .cls-13 {
        fill: #c3e6f9;
      }

      .cls-14 {
        fill: #a0d9f8;
      }

      .cls-15 {
        fill: #bcd7f2;
      }

      .cls-16 {
        fill: #1f3f85;
      }

      .cls-17 {
        fill: #4b86c6;
      }

      .cls-18 {
        fill: #64a3d9;
      }

      .cls-19 {
        fill: #203d7e;
      }

      .cls-20 {
        fill: #2971b8;
      }

      .cls-21 {
        fill: #9fc7eb;
      }

      .cls-22 {
        fill: #b5d2f0;
      }

      .cls-23 {
        fill: #223d80;
      }

      .cls-24 {
        fill: #213f84;
      }

      .cls-25 {
        fill: #81bfea;
      }

      .cls-26 {
        fill: #5392ce;
      }

      .cls-27 {
        fill: #97ccf0;
      }

      .cls-28 {
        fill: #78b6e4;
      }

      .cls-29 {
        fill: #f8fcfe;
      }

      .cls-30 {
        fill: #4f8bc9;
      }

      .cls-31 {
        fill: #233b7a;
      }

      .cls-32 {
        fill: #508ecb;
      }

      .cls-33 {
        fill: #1e3f86;
      }

      .cls-34 {
        fill: #78b9e7;
      }

      .cls-35 {
        fill: #7ab9e6;
      }

      .cls-36 {
        fill: #1e3f87;
      }

      .cls-37 {
        fill: #7fbde9;
      }

      .cls-38 {
        fill: #1d3f88;
      }

      .cls-39 {
        fill: #8ecff3;
      }

      .cls-40 {
        fill: #244181;
      }

      .cls-41 {
        fill: #2e72b8;
      }

      .cls-42 {
        fill: #fff;
      }

      .cls-43 {
        fill: #5996d1;
      }

      .cls-44 {
        fill: #c0e5f8;
      }

      .cls-45 {
        fill: #263879;
      }

      .cls-46 {
        fill: #88c1ea;
      }

      .cls-47 {
        fill: #5a98d2;
      }

      .cls-48 {
        fill: #1f438c;
      }

      .cls-49 {
        fill: #4e8ac9;
      }

      .cls-50 {
        fill: #1d418d;
      }

      .cls-51 {
        fill: #7fbae7;
      }

      .cls-52 {
        fill: #8ac5ec;
      }

      .cls-53 {
        fill: #6facde;
      }

      .cls-54 {
        fill: #5794cf;
      }

      .cls-55 {
        fill: #76b5e4;
      }

      .cls-56 {
        fill: #5c9bd4;
      }

      .cls-57 {
        fill: #88c2eb;
      }

      .cls-58 {
        fill: #18428e;
      }

      .cls-59 {
        fill: #508dcb;
      }

      .cls-60 {
        fill: #6ca9dd;
      }

      .cls-61 {
        fill: #8fc9ef;
      }

      .cls-62 {
        fill: #4c87c7;
      }

      .cls-63 {
        fill: #203e84;
      }

      .cls-64 {
        fill: #76b4e3;
      }

      .cls-65 {
        fill: #609ed6;
      }

      .cls-66 {
        fill: #233b7c;
      }

      .cls-67 {
        fill: #213e80;
      }

      .cls-68 {
        fill: #3279bd;
      }

      .cls-69 {
        fill: #68b0e2;
      }

      .cls-70 {
        fill: #1c418c;
      }

      .cls-71 {
        fill: #84c1eb;
      }

      .cls-72 {
        fill: #c1d9f2;
      }

      .cls-73 {
        fill: #223c79;
      }

      .cls-74 {
        fill: #bbd5f0;
      }

      .cls-75 {
        fill: #90c8ee;
      }

      .cls-76 {
        fill: #1b418d;
      }

      .cls-77 {
        fill: #233f81;
      }

      .cls-78 {
        fill: #223c7d;
      }

      .cls-79 {
        fill: #213d80;
      }

      .cls-80 {
        fill: #85bfea;
      }

      .cls-81 {
        fill: #203e82;
      }

      .cls-82 {
        fill: #84c1ea;
      }

      .cls-83 {
        fill: #4d88c7;
      }

      .cls-84 {
        fill: #93cbf0;
      }

      .cls-85 {
        fill: #64a2d8;
      }

      .cls-86 {
        fill: #85c0ea;
      }

      .cls-87 {
        fill: #1f3f84;
      }

      .cls-88 {
        fill: #1f3e83;
      }

      .cls-89 {
        fill: #678abf;
      }

      .cls-90 {
        fill: #327abf;
      }

      .cls-91 {
        fill: #1e3f88;
      }

      .cls-92 {
        fill: #204086;
      }

      .cls-93 {
        fill: #5290cd;
      }

      .cls-94 {
        fill: #203e83;
      }

      .cls-95 {
        fill: #8ac4ec;
      }

      .cls-96 {
        fill: #5998d2;
      }

      .cls-97 {
        fill: #88c6ed;
      }

      .cls-98 {
        fill: #1b418c;
      }

      .cls-99 {
        fill: #213d7c;
      }

      .cls-100 {
        fill: #214084;
      }

      .cls-101 {
        fill: #203d82;
      }

      .cls-102 {
        fill: #21458f;
      }

      .cls-103 {
        fill: #68a6db;
      }

      .cls-104 {
        fill: #6cb3e3;
      }

      .cls-105 {
        fill: #8cc7ee;
      }

      .cls-106 {
        fill: #1c418b;
      }

      .cls-107 {
        fill: #273f7b;
      }

      .cls-108 {
        fill: #74b1e2;
      }

      .cls-109 {
        fill: #c8dcf3;
      }

      .cls-110 {
        fill: #7cc2ec;
      }

      .cls-111 {
        fill: #61a0d7;
      }

      .cls-112 {
        fill: #5593cf;
      }

      .cls-113 {
        fill: #68a6da;
      }

      .cls-114 {
        fill: #1d4088;
      }

      .cls-115 {
        fill: #263775;
      }

      .cls-116 {
        fill: #74bbe8;
      }

      .cls-117 {
        fill: #6baadd;
      }

      .cls-118 {
        fill: #223c80;
      }

      .cls-119 {
        fill: #213d7e;
      }

      .cls-120 {
        fill: #7bc1eb;
      }

      .cls-121 {
        fill: #263773;
      }

      .cls-122 {
        fill: #2e7bbf;
      }

      .cls-123 {
        fill: #194491;
      }

      .cls-124 {
        fill: #70addf;
      }

      .cls-125 {
        fill: #b9e2f9;
      }

      .cls-126 {
        fill: #cfe4f7;
      }

      .cls-127 {
        fill: #8cc6ed;
      }

      .cls-128 {
        fill: #84c3ec;
      }

      .cls-129 {
        fill: #64abdf;
      }

      .cls-130 {
        fill: #1c408b;
      }

      .cls-131 {
        fill: #83c0ea;
      }

      .cls-132 {
        fill: #427ec0;
      }

      .cls-133 {
        fill: #89caf0;
      }

      .cls-134 {
        fill: #6bb3e4;
      }

      .cls-135 {
        fill: #74b2e2;
      }

      .cls-136 {
        fill: #7bb9e6;
      }

      .cls-137 {
        fill: #1d4086;
      }

      .cls-138 {
        fill: #2f74ba;
      }

      .cls-139 {
        fill: #194896;
      }

      .cls-140 {
        fill: #5e9dd5;
      }

      .cls-141 {
        fill: #95ccf0;
      }

      .cls-142 {
        fill: #253871;
      }

      .cls-143 {
        fill: #1d4089;
      }

      .cls-144 {
        fill: #83c8f0;
      }

      .cls-145 {
        fill: #80c2ec;
      }

      .cls-146 {
        fill: #6ba9dd;
      }

      .cls-147 {
        fill: #1d408a;
      }

      .cls-148 {
        fill: #1c408c;
      }

      .cls-149 {
        fill: #c0d9f2;
      }

      .cls-150 {
        fill: #84c2ec;
      }

      .cls-151 {
        fill: #1f3e84;
      }

      .cls-152 {
        fill: #5e9ed6;
      }

      .cls-153 {
        fill: #83c9f0;
      }
    </style>
  </defs>
  <g id="Capa_1-2" data-name="Capa 1">
    <g>
      <path class="cls-49" d="M77.91,295.66c2.95-.44,5.91-.85,8.89-.88,25.17-.18,50.39-.32,75.54.18l4.44.69c.06.95-.33,1.15-1.17,1.26.23,3.5-2.5,4.58-8.17,3.25-2.15,1.66-3.61,1.72-5.46-.17l-4.35,1.56c-11.62.57-4.91,2.97,1.38,3.38,4.79-.83,12.34-1.12,7.46,5.6,1.65,2,16.54.45,19.74.09-3.62-1.88-2.47-5.55,1.29-6.32l6.32-.82c.99-.29-.45-3.93-1.94-2.97-3.06,1.56-7.34.8-6.6-3.26l-6.26-.2c-.8-.09-.97-.57-.79-1.39,18.22-.96,36.46-.96,54.69,0,.36-1.4,2.6-1.41,2.93,0,.31,1.39-1.01,1.92-3.96,1.61l-6.98-.22c-.28,3.75-5.29,4.94-8.7,4.73l-10.21-.4c-1.31-.3-8.47.16-8.19,2.38,1.68.45,2.49,1.56,3.29,3,3.51-.78,5.69-.08,6.15,3.87,5.45.15,10.9.45,16.36.9,2.74.18,4.01,1.22,3.81,3.11l7.43-.56c1.62-3.99,7.43-3.71,11.08-3.43,3.53.85,7.09,1.19,10.68,1.04,3.53,1.07,6.47.8,8.82-.81,5.31-.16,10.33-1.02,15.07-2.59,3.41-2.84,6.54-4.02,11.01-3.45,1.91-.63,6.13-1.57,4.88,1.56-.3.16-.67.39-.98.49-.44.22-.77.54-.98.98-9.3,4.97-16.13,8.37-26.86,9.77-1.18-.02-2.32.14-3.42.49-.16,0-.33,0-.49,0-.35-.08-.51-.24-.49-.49-.91-.46-2-.4-2.93,0-9.26.35-18.57.4-27.83,0-3.07-.43-6.21-.49-9.28,0-.47.42-1.85.36-2.44,0,.05-.69-.15-.89-.56-1.18-.46-.33-5.27-1.44-6.25-1.65-12.12-2.57-22.08-1.33-34.49,1.62l-5.29.2.21,1.01c-2.11.43-5.1.4-7.32,0-.26-2.08-5.65-3.45-7.57-3.88-2.61-.58-5.21-1.05-7.9-.78-9.45,1.73-18.35,1.15-27.85-.07-5,1.11-9.94,2.45-14.82,4.03l.04.71c-2.11.43-5.1.4-7.32,0-.4-1.1-1.72-1.72-3.97-1.87-2.53-2.69-6.38-2.7-9.95-2.56-3.96.16-4.37.19-2.69,4.42-5.05,0-9.93.16-14.65.49-9.81-.45-17.78-2.77-26.37-7.32-.4-.53-.83-.85-1.46-.98-1.33-.76-4.63-1.86-5.37-3.42l-.18-.62c-2.63-1.16-4.86-4.01-.38-3.15,2.7-4.56,4.51-2.28,6.54,1.25,5.06,2.62,21.67,1.84,25.29-2.38.06-.06.34-1.59.29-1.67-8.17-1.09-3.77-3.87.67-6.13l1.47-.48c5.41,1.21,10.9,1.83,16.48,1.85l.6.58Z"/>
      <path class="cls-150" d="M266.88,5.14c2.72,1.05.11,2.82-1.88,1.82-3.48,2.4-8.92,2.15-13.06,1.58-10.01-.18-20.03-.17-30.05.04-1.8-.04-4.55-.32-4.46-2.56-2.02,3.26-5.52,3.96-10.5,2.11-1.57.36-2.75.18-3.52-.54-2.88.76-5.56,1.32-8.41.24-6.54.22-13.05.88-19.54,1.97.49,1.62-1.65,6.73-3.54,5.12-.07.28-.14.49-.23.49-2.78.15-6.43.16-9.21.02-.12,0-.22-.23-.32-.51-1.09,1.33-2.17-.29-1.42-1.79,1.78-2.47,1.2-3.83-2-4.12-25.34-.42-50.82-.75-76.46-.97l-5.12,1.06c-5.24-2.1-12-.32-16.75,2.45-2.14.96-4.5.92-7.07-.11-3.17,2.44-8.14,1.84-8.87-2.49-3.48,3.18-7.97-.42-4.63-3.81,1.47-.57,3.33-1,4.88-1.46l1.9-.07c1.04,3.35,3.42,4.03,7.13,2.06,3.02,1.48,7.65,1.21,8.91-2.35-1.11-.18-1.75-2.29-1.01-2.33,3.94-.2,7.95-.02,11.88.25,1.93.42,3.92.41,5.86,0,1.13-.37,2.28-.37,3.42,0,1.58.43,3.29.42,4.88,0,1.62-.37,3.26-.37,4.88,0,3.56.41,7.18.41,10.74,0,4.7-.39,9.46-.38,14.16,0,1.43.42,2.97.42,4.39,0,2.59-.39,5.22-.38,7.81,0,2.41.42,4.91.42,7.32,0,4.53-.36,9.09-.53,13.67-.49,31.01-.12,64.78-1.59,95.48-.02,7.55.39,13.71,1.78,20.73,4.41Z"/>
      <path class="cls-149" d="M262.97,124.76c.4.12.35.72,0,.98-.04,7.02-.2,14.02-.49,21-.37,2.31-9.01,10.9-11.22,12.95-13.69,12.66-30.15,22.98-47.37,30.02-1.44.27-2.14.17-1.89-1.48-1.79,1.03-3.84,1.22-6.14.56-4.57,2.26-7.12.12-8.87-4.19-1.23.26-2.13.17-1.65-1.24,4.4-3.76,10.48-7,16.11-8.3l.22-1.22c3.07-1.13,5.83-2.72,8.29-4.77l1.26.13c-.05-.35-.07-.68.04-.97.54-1.49,6.89-8.64,8.5-10.24l1.72-.51c.47,1.11,1.44.16,2.02-.18,14.33-8.28,28.31-20.78,39.48-32.54Z"/>
      <path class="cls-25" d="M175.08,15.88c8.24-1.06,16.67-1.52,24.9,0l-.03,1.07c-7.61,2.9,4.03,1.72,3.93-1.07l.04-.65c6.99-.39,14.11-.49,21.36-.33l.57.98c.42,1.77-3.55,3.86-5.35,3.72l-3.51-1.15c.04,3.86-1.07,5.96-3.31,6.3-2.24.31-24.44,1.15-26.88-.59-.41-.3-.68-.5-1-.92-.08-6.39-9.21-4.72-13.11-2.95,5.6,4.49-2.15,4.71-5.89,4.73-2.45-.78-5.45-1.03-7.82-.1-5.39-.85-10.77-1.09-16.14-.73l-.85.98c-6.66,1.13-13.44,1.12-20.34-.05-5.57.92-11.06.97-16.48.16-11.82.33-23.66-.36-35.5-2.06l-.78-.57c-.64-6.23-10.34-7.08-11.46-.33l-1.02,1.11c-9.7,2.6-19.72,2.67-29.65,1.81-1.87.11-9.08.91-9.83,2.02-1.27,5.82-8.05,4.66-4.18-.89,1.73-1.97,3.42-4,5.09-6.09.5-.53.95-.96,1.46-1.46,1.99-1.35,3.78-2.98,5.37-4.88.65-.51,1.27-.98,1.95-1.46,2.55,1.32,5.04,2.79,7.45,4.41l.24.86c-2.88,6.7,11.03,3.59,13.04,1.63,1.46-4.01,6.35-4.77,10.16-4.93,37.13.11,74.53.43,112.2.97l5.34.48Z"/>
      <path class="cls-71" d="M39.83,5.14c-.05,1.57-.81,2.81.8,3.85,1.91,1.24,1.82-.5,2.96-.85,2.49-.75,1.69,1.34,2.23,2.24.29.48,2.79,1.6,3.55,1.63,2.06.08,2.14-1.39,3.88-1.55,1.88-.18,2.95,1.05,4.28.94,2.37-.21,6.01-2.78,7.55-3.23.42-.12,8.21-1.14,8.69-1.14,1.56.01,2.22,1.02,3.41,1.09,1.31.08,3.23-1.13,5.37-1.07,15.08.42,29.94.4,44.9.54,9.04.09,17.83-.32,26.88.46,3,.26,7.5-1.19,8.47,2.81.19.76-2.72,4.03-.66,4.03h9.77c1.44,0,2.17-3.57,3.18-4.63l-2.94-.25c0-2.39,2.21-1.04,3.19-1.21,6.03-1.04,11.41-1.21,17.54-1.21,3.51,0,7.02-.05,10.52-.02-.39,1.83-4.34,3.37-6.23,2.64-1.77-2.73-13.86-1.31-11.65,2.65,1.2.36,1.78,1.96.66,2.52-3.76-.45-7.47-.29-11.1.49-19.57.07-39.31.19-58.82.02-17.47-.15-34.87-.79-52.29-.49-4.55.08-11.26-.77-14.85,2.69-.58.56-.48,1.54-1.29,2.13-2.57,1.89-14.31,4.74-14.87-.23-.1-.92.67-2.02.29-2.65-.96-1.61-6.15-1.84-6.62-4.89,4.38-3.12,8.12-5.35,13.18-7.32Z"/>
      <path class="cls-47" d="M40.31,245.86l-.25,6.17c-3.31,1.75-7.02,2.29-11.13,1.63.27,3.81-.29,7.79-2.83,10.84-6.83,1.21-13.73,1.57-20.7,1.4-4.91,3.07-3.81-1.52-3.66-1.24.04.08-.23,1.19-.49,1.22-.43-2.66-.85-4.54-.98-7.32.14-.43.3-.42.49,0l.24-18.91c.82-.57,1.44-.24,1.85.6.89-1.18,1.98-2,3.28-2.46-2.41-4.38.79-4.83,4.57-5.34,1.62-1.85,3.27-2.82,4.97-2.93,1.01,3.85,20.01,1.97,18.37.41-6.36-2.63-2.98-4.41,1.67-5.09l.27-1.57c-2.42-3.35,2.5-5.69,3.85-2.81l-.98-.43v-7.66l.98-.7.37-.58c.69,11.38.73,22.96.11,34.76Z"/>
      <path class="cls-37" d="M17.85,20.27l-2.81,3.65.86,2.2c-.71.23-2-.51-2.46-.25-1.83,1.07-1.62,5.96,1.29,3.71.97-.75.73-2.98,2.47-3.92.93-.5,1.55.03,2.22-.17,8.3-2.53,12.36-.47,20.17-.63,4.73-.09,10.25-1.52,15.13-1.69,3.25-.79,2.53-5.95,5.84-6.36,2.5-.31,6.89.12,8.3,2.5.46.78.7,2.75.82,2.85.41.33,5.94.42,7.01.56,6.22.82,16.17,2.11,22.51,1.95,4.57-.11,4.85-.87,9.66.06s7.52-.5,11.8-.62,9.93,1.13,14.14,1.04c2.49-.06,4.79-1.09,8.08-.99,4.62-.39,9.39-.29,13.9.62,1.78.96,3.45,4.39,1.23,5.24-7,.33-14,.35-21,0-.6-.61-1.26-.61-1.95,0-7,.36-14,.38-21,0-1.73-1.02-2.71-1.15-4.39,0-13.48.44-27.04.26-40.53,0-.04-.26-.07-.51-.05-.76.11-1.21,4.17-1.99,5.41-2.15-7.07-1.91-14.14-2.23-21.4-.85,2.86,4.18,1.56,4.59-2.97,5.32l-8.61,1.42c-1.64,1.43-3.8,2.11-6.47,2.02-5.52,2.74-11.7,3.08-17.42.87-1.03-.04-7.79,1.14-8.5,1.63-1.01.69,2.02,3.03,3.23,2.32,5.41-.7,7.04,1.86,2.02,4.64-.44,3.68-.95,4.78-4.88,5.06-2.55,1.56-4.48,3.99-5.8,7.3l-1.52.03.11,7.86-1,1.42c1.71.24,1.32,2.99-.49,2.44-.39-1.45-.37-2.93,0-4.39-.14-1.39-.3-2.85-.49-4.39.75-15.8,6.87-28.3,17.58-39.55Z"/>
      <path class="cls-59" d="M41.78,266.37c2.17,10.75,5.81,21.21,16.65,25.87l.93,1.48c.68,2.41-4.37,2.36-4.4,4.15-.01.67,4.1.77,4.85,1.27l-.53,3.05c-1.02.46-3.97,2.46-4.66,2.66-1.54.45-8.32,1.42-10.16,1.56-2.77.21-9.68-.23-11.92-1.73-1.07-.72-1.67-3.67-3.21-3.65-1.45.01-1.27,4.19-4.63,1.98-.7.84,2.57,2.3,2.92,3.18.11.27-.49.22-.48.24-7.9-4.71-14.02-12.13-18.55-20.02-.63-1.89-.05-3.33,2.01-2.18.81-.86,1.73-1.5,2.78-1.93l12.71.11c1.87-2.4,3.35-2.33,6.06-1.81l1.6-.61c-3.18-.77-4.34-2.03-3.47-3.79,3.65-2.87,4.42-3.98-.73-4.83-5.88-4.84,2.26-5.71,6.14-5.93,2.05-1.04,3.76-1.21,5.12-.52.1.37.27.21.49-.49,1.5-.21,1.83,1.3.49,1.95Z"/>
      <path class="cls-5" d="M225.86,15.88c.07-.5.28-.91.65-1.25,2.8-2.54,22.47-.47,26.89.78,1.92-.2,3.43-.1,3.26,2.28,1.34.23,1.33,1.41-.03,3.56-5,5.93-10.04,11.74-15.14,17.58l-1.48-.03c-3.73-3.29-8.17-5.9-13.14-6.68l-1-1.1c-1.77-.31-3.56-.48-5.37-.49-18.31-.3-37.03-.47-56.15-.49-.8-.86-.54-2.21.76-4.08-3.61-.66-5.85-.66-3.34,3.03l-.35,1.05c-1.14.32-2.29.32-3.42,0,.45-3.91-1.7-4.91-5.17-5.33-3.03-.37-7.03-.44-9.97-.53,2.59-.85,5.79-.52,8.54-.48,5.65.07,15.15.79,20.48-.04,4.92-.76-.48-1.79-.13-3.56.45-2.27,12.61-3.66,14.2-.2.82,1.77-.37,3.3,2.59,3.76,2.31.36,7.11.46,9.71.54,5.53.18,11.04-.23,16.55-.49,1.28-.29.24-5.29,1.76-6.14.88-.49,3.76,1.19,4.58,1.12,1.32-.1,3.77-2.47,4.72-2.82Z"/>
      <path class="cls-57" d="M91.47,197.16c36.28-4.94,36.71,47.9,2.32,45.28-27.2-2.08-27.15-41.9-2.32-45.28Z"/>
      <path class="cls-30" d="M241.97,285.41l1.61-.77c2.67.42.18,9.7-.49,11.2,4.21,1.48,3.1,8.08-1.05,4.7-4.34.99-5.47,2.14-3.4,3.43,4.46-.18,11.49-.33,9.74,6.15,1.68.59,7.73,1.72,4.95-1.42,1.01-4.65,3.64-2.93,6.46-.85,7.76-3.92,17.28-5.2,25.9-5.45,2.56-.23,4.37.25,2.17,2.55-.44.74-.69,1.04-1.46,1.46-1.16-2.65-3.01-.72-4.78-.59s-3.74-.32-5.61.21-4.68,3.48-7.15,4.08c-4.79,1.16-8.31,1.08-12.95,1.7-1.64.22-3.97.98-3.21,2.9-1.89.31-.18-.88-.69-1.48-.71-.82-6.32-.51-7.87-.5-4.27.03-3.51-.39-6.85-.93-2.77-.44-12.1-.99-11.46,3.37-1.61-.61-9.33,1.53-9.64-.21-.2-1.12,1.57-1.35-.98-2.06-5.28-1.46-11.19-.72-16.49-1.11-3.82-.28-2-.85-2.92-2.94-1.19-2.7-3.99-.61-5.11-1.2-.69-.37-1.03-1.65-1.7-2.24s-2.11-.64-2.69-1.7c.82-.65,1.59-1.94,2.47-2.4,4.17-2.19,16.01.38,21.59-.87.68-.15,3.65-2.1,3.76-2.59l-1.46-1.7c3.83-.32,8.25.41,12,.02.66-.07,1.04-.49,1.18-.51.36-1.45,3.46-2.11,4.39-.98l.4-1.22c1.34-1.25,5.85-4.28,7.42-4.63-.02-1.91,2.03-3.63,3.91-3.42Z"/>
      <path class="cls-4" d="M259.06,268.81h1.08c.98,3,10.75,4.32,8.64-.85.92-1.77,6.3-1.46,6.28.7-5.31,8.21,4.69,7.56,10.01,6.57,3.27,1.08,2.61,5.03-.95,4.59-5.38-.98-7.15-.1-5.31,2.63,1.59-.24,2.71.19,3.37,1.31l5.48,2.1c2.32.86,5.92,2.77,2.6,4.69.71.8,1.79.55,2.29-.37-1.52-1.93.42-3.22,2.41-3.32-.04-3.19,3.55-3.43,5.97-3.38l2.02-1.15c1.69-2.43,4.6-4.93,3.96-.35-2.92,6.08-5.33,9.67-9.77,14.65l-2.25.34c-.68,2.7-2.45,2.61-3.61.27-5.84.21-11.73.19-17.69-.06-8.98,1-17.52,1.51-26.18-.9-3.06-3.44-1.66-8.72,3.7-7.77-3.25-1.46-.64-3.28,1.91-3.49-3.64-3.87-3.33-9.48,3.49-7.48l2.92-1.13c-1.62-1.44-2.24-3.49-1.84-6.15-.48-1.39.21-2.26,1.46-1.46Z"/>
      <path class="cls-58" d="M63.26,279.06c1.51.49,2.97,1.1,4.62,1l157.98-.02c.2-1.32.46-1.19.98,0,.43.14.42.3,0,.49-1.22.29-2.47.37-3.76.24l.34.24c1.05,1.43-.85,1.63-2.03,1.44-1.35,4.83-9.99,3.43-12.63,0l-9.43-.04c-3.11,3.13-9.78,6.44-14,4.35-5.65-1.05-11.8-2.17-17.56-2.09-5.17,1.63-12.06,2.93-15.75-2.17l-4.29,1.45c-.09.82-.76,1.26-2.02,1.32-1.48,2.54-4.15,2.74-8.01.59-4.33,1.42-8.83,1.43-13.51,0-1.03.08-1.71.76-2.06,2.05l-1.27.42c-18.05.46-36.15.28-54.2,0-.09.44-.26.42-.49,0-2,.26-2.98-.07-2.93-.98-1.28-.51-1.86-1.19-1.74-2.03-1.85-.65-3.51-1.7-1.97-3.68-1.96-2.91,1.45-3,3.71-2.59Z"/>
      <path class="cls-61" d="M109.65,104.26c1.49-2.08,7.05,1.89,6.84,3.91-6.6,9.81-19.07,12.02-29.92,8.19-18.29-6.46-18.46-38.06-1.47-45.19,6.8-2.85,20.93-2.63,26.98,2.09-1.16.6-5.23,5.93-5.68,6.06-.84.25-2.74-1.09-3.86-1.4-9.52-2.57-20.61.96-21.7,11.94-.29,2.96.04,9.18,1.22,11.96,4.08,9.64,22.08,10.86,27.59,2.44Z"/>
      <path class="cls-61" d="M227.81,215.58c-30.43.36-60.86.36-91.31,0-4.27-1.5-3.57-7.32.72-7.82h88.9c4.64-.09,5.82,5.88,1.69,7.82Z"/>
      <path class="cls-86" d="M262.97,245.37c.33.1.31.27,0,.49.99.69.58,1.83-1.22,3.42-10.77,11.35-22.08,21.81-33.92,31.41l-1-.65c-.28.06-.67-.04-.98,0v-.49c-.19-10.08-.19-20.17,0-30.27.54-2.39,1.98-3.59,4.32-4.13,10.88,0,21.96-.92,32.79.22Z"/>
      <path class="cls-32" d="M257.6,270.27c1.83.9.44,2.91,1.51,4.59.77,1.21,2.99,1.03,2.88,2.73-2.26-.94-3.82.84-5.67.96-2,.14-4.81-1.97-4.56,1.68.03.38.94,3.45,1.06,3.59.69.85,2.81-.41,2.82,1.32-.24,1.18-4.89.54-5.37,2.2,1.05-.11,1.79.74,2.71.95,1.18.27,3.54-.72,3.14,1-.95.19-8.52.15-8.78.51-.04.06.43.61.37.71-.25.4-.75.25-.8.49-.12.63.04,3.44.42,3.9,1.46,1.78,3.78.91,5.56,1.28,6.94,1.43,6.85,1.22,13.78.5,7.69-.8,13.15-.58,20.92-.04,1.27.09,3.28-.43,3.95-.32.97.16,1.59,3.4,2.17,1.02.23-.91-.31-1.22,1.49-1.41.86-.09,1.41-.76,1.92.68-2.67,3-5.61,6.55-9.28,8.3.04-.07-.34-.85.49-1.46-.46-.38-10.55.21-11.92.53-3.9.91-9.5,1.95-13.11,3-1.08.31-2.21,1.79-3.54,1.79-1.52,0-3.01-2.36-3.91-2.28-.3.02-1.6,1.34-1.66,1.66-.13.8,2.27,2.1-.17,3.23-2.25,1.04-4.94-.25-7.2-.61,2.22-3.23.25-5.35-3.22-5.81-3.19-.42-6.67,1.5-6.97-2.83-.09-1.36,3.07-1.56,4.18-1.99.79-.31,1.16-1.3,2.09-1.08-.04,3.58,3.02.92,1.43-1.19-.59-.79-1.41-.59-1.77-.9-1.58-1.35,1.21-5.59,1.29-7.47.02-.49-.34-3.34-.46-3.87-.15-.67-1.3.49-1.47-.25.15-.49.31-.97.54-1.42,1.03-2.09,11.54-12.37,13.62-13.26.47-.2.97-.34,1.47-.46Z"/>
      <path class="cls-131" d="M203.4,7.58c4.46-1.07,5.08.09,8.59.48,5.31.6,4.41-4.39,5.33-4.38,1.22.48,1.03,3.09,1.28,3.35.13.13,3.06.57,3.6.59,9.73.31,20.02-.79,29.81-.06,3.78.28,2.68.86,6.93.13,1.45-.25,3.87.24,4.76-1.12.33-.51.13-2.22,1.23-1.42.13.09-.1,1.69,2.45.96l-.49-.97c.6.23,1.73.19,2.44.49.59.82-11.3,13.97-12.69,15.62-.9-.84.87-1.86.47-2.41-.07-.1-.93-.08-1.2-.51-.41-.63-.13-1.81-.26-1.95-.16-.17-1.94.11-2.64-.04-7.24-1.59-20.05-3.09-27.13-.46h-21.97c-.42,1.16-3.43,1.11-3.91,0-8.29.02-16.61-.03-24.9,0,3.37-2.22,7.06-1.22,10.74-.98.33-1.41-.96-.66-1.27-1.91-1.28-5.21,7.39-5.54,10.77-4.9,1.23.23,1.95,1.6,3.41,1.45.57-.06,3.38-1.65,4.67-1.96Z"/>
      <path class="cls-95" d="M101.35,179.45c-1.26.24-1.33-.32-.6-1.33-1.24-1.28-2.18-2.47-2.06-4.38-1.79-.03-3.55-.18-5.29-.46l.14-1.14.7-1.06c27.53-.15,15.83-39.34-7.76-24.03-1.13,1.56-2.36,2.6-3.69,3.12-2.23.59-4.52,1.22-6.85,1.9.14.99.1,1.97-1.04,2.19.26,1.72.44,5.51-1.88,4.2-1.1-24.63,31.95-33.11,43.47-12.46,7.38,13.23.13,30.97-15.15,33.46Z"/>
      <path class="cls-112" d="M261.51,266.37c1.88-1.69,2.82-2.25,5.69-1.43,8.87-.11,17.73-.3,26.59-.55,6.11-1.13,12.17-1.43,17.81,1.43l.2,1.53c-.93,5.97-2.3,9.28-4.88,14.65l-.73-1.95c-.75.76-1.94,2.57-2.72,3.14-.11.08-2.13,1.21-2.26,1.24-1.3.29-2.14-.23-3.84.47-2.57,1.04-.88,2.68-1.19,2.96-.14.13-3.23-.3-3.29,1.22-.01.37,1.12.64.31,1.87-1.49,2.26-4.96.44-3.55-1.19.16-.18,1.12-.32,1.14-.68.08-1.41-7.72-3.82-9.14-4.5-.58-.28-.59-1.03-.95-1.11-.74-.15-2.15.24-2.52-.08-.11-.09-1.04-2.51-1.05-2.65-.4-3.83,6.8-1.06,9-2.16.61-4.26-4.2-1.6-5.79-1.53-.5.02-6.25-1.43-6.62-1.65-3.03-1.81.43-5.33.48-7.56-.82.47-4.18-.21-4.39,0-.39.37,1.17,4.28-2.2,4.44-.56.03-5.84-.51-6.25-.63-1.02-.29-1.89-1.88-2.3-2.83-.92-1.26,1.23-3.52,2.44-2.44Z"/>
      <path class="cls-96" d="M272.25,238.05c.37-.49,1.03-.74,1.97-.73,2.14-3.2,4.73-4.26,8.35-2.76,2.53-3.34,7.34-2.49,10,.12,6.37-4.21,12.2.15,12.93,6.84-1.78,1.66-.27,10.82,1.61,10.06,2.91-2.4,4.63-2.36,5.17.13.27,3.4.44,6.82.49,10.25.08.85.26,2.46-.49,2.93-2.1-1.42.57-1.22-.27-.38-1.46,1.46-4.24-2.04-1.34-3.21.31-.88.64-7.88-.69-7.07-1.11,2.27-3.21,1.44-4.71,0-1.3-.37-8.48-.89-7.51,1.73l-1.09,1.21c2.95,4.29-3.23,5.69-3.03,1.08-3.32.05-5.96-.79-7.95-2.54,1.18-3.81-7.57-2.98-9.79-1.79-1.4.43-2.57.15-3.78-.57-1.55,3.28-2.49,4.03-2.81,2.27-1.9-.51-.75-2.64,0-3.91-.28-1.29.66-4.88,1.95-5.37v-.49c.14-.43.3-.42.49,0,.54-.46.49.54.48.49-.25-2.77-.46-5.54,0-8.3Z"/>
      <path class="cls-2" d="M136.51,226.33q.81.37,0,0c.62-.23.67-.43,1.65-.52,18.91-1.72,40.45,1.37,59.64.02,5.32.63,5.76,7.71.49,8.32h-60.57c-4.44-.29-5.23-6.35-1.21-7.82Z"/>
      <path class="cls-43" d="M269.32,255.62c.08,0,.25.4.45.48.17-.94,1.41-3.72,2.3-3.86.52-.08,1.15.91,2.3.92,1.72.02,4.51-1.44,5.8-1.35.52.03,5.48,1,5.75,1.12,1.53.73.48,2.24.73,2.72.49.93,5.67,1.47,7.03,1.64.47.06,1.45-.28,1.52-.2.69.82-2.84,3.32,1.47,2.93.16-1-1.08-2.25-.88-3.11.12-.53.93-.86,1.12-1.32.34-.82-.56-1.42.85-2.04,1.18-.52,6.16-.61,7.45-.36,1.18.23,1.44,1.47,2.94,1.51,1.21.03.43-1.57,2.32-1.43.35.02,1.26.33,1.36.73.13.55-.05,7.66-.26,8-.29.47-1.6.21-1.21,1.19.17.44,1.21,1.02,1.46.74.22-.24-.47-1.62.49-1.47-.02.81.05,1.63,0,2.44-.07,1.25-.37,1.69-.49,2.44l-.49-1.22-.48,2.19c.04-1.21-.48-2.09-1.59-2.56-.55-.23-6.29-1.34-6.96-1.34-2.51-.01-6.18.81-8.79.97-8.78.54-17.17.08-25.86.52-1.46.07-3.11-.55-3.96-.49-.95.07-1.15.91-1.68,1.16-.27.12-.46-.22-.48-.21l-.36-1.19c3.46-2.91,5.39-5.99,7.43-9.69l.74.14Z"/>
      <path class="cls-105" d="M199.49,81.31c5.14,1.94,1.66,7.16-2.17,7.84l-60.57-.04c-3.65-1.43-4.09-6.34-.25-7.8,20.99-.53,41.99-.53,62.99,0Z"/>
      <path class="cls-151" d="M41.78,150.15c-1.78-7.61,3.71-8.83,3.12-.11,1.05,2.8,1.96,5.61,2.74,8.41.72,1.78.72,3.59,0,5.37-4.66-.41-3.21,7.11-2.5,10.05.87-1.51,2.27-2.4,2.5-.28l.65,2.12c.2,25.16.43,50.27.69,75.33l.61-.3c.09,6.11-.73,12.88,1.95,18.55-.91,2.85-5.74-1.83-5.15-4.4l.4-10.78c-4.74-.24-5.42-4.64-.29-4.73.41-2.35.75-13.76-.68-14.88l-2.52-1.15c-.1-1.37-.77-1.43-2-.2-.38-14.97-.45-31.26,0-46.39.87-.54,1.17-.22,1.48.61.49-.43-.09-9.4-.25-10.74l-.75-.61c-.32-4.84-.37-9.81,0-14.65.23-.52.33-.97,0-1.46-.39-1.05-.37-2.36,0-3.42l.82-.41c.3-2.01.03-3.98-.82-5.94Z"/>
      <path class="cls-130" d="M252.72,120.37c-4.99,5.91-10.12,11.7-15.14,17.58-.25.02-.48.03-.69-.06-.39-.16-3.76-1.48-3.95-1.38-.41.22-1.43,5.6-.7,6.62-2.22,2.19-4.11,4.58-6.08,7.13-1.78.55-2.01,1.26-2.53,3.1l-.21,1.68c-.67.78-1.28,1.67-1.95,2.44-3.22,3.72-6.89,8.3-10.25,11.72-1.3.72-1.65-.27-1.73-1.6-2.46.06-5.25-2.52-4.13-4.74l.2-1.15c12.59-14.9,25.87-29.98,39.83-45.24,4.12-2.05,9.44-2.47,7.32,3.91Z"/>
      <path class="cls-47" d="M312.78,72.03c.13.1.23.19.22.28-.49,4.47-7.45,15.44-10.25,19.63l-1.2.11c-.28,1.99-.98,3.74-2.11,5.25-2.02,3.49-4.47,7.58-7.66,9.89l-.88.56c-2.09-.81-4.5-.93-6.64-.32-1.11,3.18-8.74,5.19-6.16.24,10.16-12.21,19.84-25.52,29.79-38.09l.92-.71c1.81,1.09,2.88-.08,2.44-1.92,1.95-4.12,2.19,3.24,1.52,5.07Z"/>
      <path class="cls-76" d="M278.11,77.4c2.86-2.88,3.1,2.34,1.58,4.32,1.9,1.62,1.28,2.97,0,4.75.33.32.44.72.37,1.19-9,10.95-18.17,21.85-27.34,32.71-.58-1.23.03-3.42-1.46-4.16-2.76-1.36-3.21,2-5.87.25-1.12-.66-.81-1.1.49-.98,9.46-13.6,20.5-26.38,32.23-38.09Z"/>
      <path class="cls-15" d="M185.33,183.36c.3.85,1.53,0,1.98.25,1.39.76,1.49,4.71,4.66,5.11,1.93.24,2.65-.87,3.83-.91,1.72-.06,3.83,1.19,5.8-.52.61-.53.29-1.79,1.3-1.98-.19,1.27,2.17,1.3,1.24,2.46-.43.54-2.73.5-.26,1.93-12.42,5.08-22.52,7.78-35.64,10.25-3.97.38-4.69-.46-6.22-4.27-1.11-1.19-5.34,3.72-5.78,5.18l-1.18,1.04c-.58-.13-2.29-.11-2.46-.81-.24-1-.42-5.08,1-5.53-.19-.86,3.67-1.36,4.33-1.35.39,0,.73.13,1.04.37l1.59-1.56c7.61-3.01,15.14-6.12,22.6-9.34l1.2.16c-.19-1.31.04-1.42.98-.49Z"/>
      <path class="cls-141" d="M175.4,100.52c2.47,2.48,1.21,6.73-2.5,7.16-10.97,1.28-24.39-.95-35.63-.04-4.93-1.01-4.42-7.72.45-8.28,10.86-1.26,24.06.98,35.19-.01.89.07,1.87.55,2.49,1.17Z"/>
      <path class="cls-93" d="M40.31,254.65c.12,2.55.29,5.16.49,7.81.33.1.31.27,0,.49.38.52.36,1.43,0,1.95-2.34,1.24-11.23.48-12.15,3.25-1.03,3.09,4.32,2.37,5.09,3.56,1.73,2.68-1.94,3.87-3.18,5.64,0,.88,5.5,1.55,4.38,3.16-.08.12-2.31,1.02-2.68,1.03-2.82.15-2.96-1.76-5.49,1.83l-12.84-.23c-2.23.32-2.64,3.37-4.63,1.28l-.73,1.95c-2.56-4.46-3.84-7.27-5.37-12.21-.33-2.46,2.19-2.2,2.46.13l4,.39c3.78-1.26,7.26-1.29,10.44-.08.31.03,5.59-.87,6.04-.98.04,0,.43-.48.49-.6,1.3-2.62-6.87-2.05-8-1.79-9.3-1.51.47-5.87,4.38-6.49,1.19-.19,4.09-.44,4.6.63l2.48-.94c2.93.47,5.23-.02,6.88-1.48,0-1.65.42-2.74,1-4.21.15-.38,1.49-2.71,1.86-2.65-1.56-1.81-1.39-2.62.49-2.44.36.32.35.67,0,.98Z"/>
      <path class="cls-75" d="M82.79,150.15l.45,1.33c-3.85,8.38,1.18,16.88,9.65,19.43l.64,1.21c.09.02.29.39.74.47,1.46.26,4.02-.41,5.16.24.36.21.1,1.93.54,2.82s3.35,3.04,1.08,3.3l.29.48c-14.63,2.39-27.62-5.25-28.32-21,1.96-.67.47-4.63.98-5.37l.97.49c.14-.65-.19-2.67,0-2.94.04-.06.74.41,1.12.32,1.86-.42,4.61-1.93,6.69-.81Z"/>
      <path class="cls-112" d="M40.31,253.67c-.78.41-.47,1.66-.49,2.44-1.01-.24-3.49,1.79-3.81,2.47.86,4.22-.73,5.71-4.82,5.39-1.04.73-2.23,1.2-3.57,1.42-1.16.07-2.39.59-4.01.1-1.19,1.07-7.2,1.98-7.71,3.08-.58,1.25.76,1.53,1.74,1.65,2.47.31,6.5-.86,8.46.32,1.82,1.1,2.23,3.04.19,4.03-1.98-.47-4.73,1.08-6.27,1.02-.86-.03-1.55-.79-2.45-.9-3.5-.41-4.64.75-7.28,1-.55.05-5.39-.39-5.59-.59-.21-.21.04-1.45-.28-1.91l-1.23.99c-1.02-3.28-1.4-4.87-1.95-8.3l.49-1.22c-.66,3.28,2.12.34,3.68.26,6.76-.37,9.16.69,16.6-.96,1.99-.44,3.72,1.02,4.5-1.85.34-1.25,1.47-3.68,1.49-3.9.18-1.51-.51-3.72.09-5.5,3.6-.13,6.41.63,9.88-.53.57-.19.07-1.58,1.83-.45l.49-5.86c.35,2.6.35,5.22,0,7.81Z"/>
      <path class="cls-137" d="M63.75,39.8c-2.25,1.66.05-5.02.35-5.33.94-.99,2.76-.25,3.13.99,2,.92,4.1,1.56,6.29,1.9,1.11-1.36,2.81-1.39,3.91,0,2.09.44,4.25.41,6.35,0,.62-.95,1.34-.95,1.95,0,2.47-1.2,4.85-1.21,7.32,0,1.28-.96,2.62-.96,3.91,0l8.79.49c.44-.47,1-.91,1.61-.81,3.13.5,7.47.1,10.84-.26,1.91-.2,3.57-.66,5.31-1.33,1.14-.26,2.15-.03,2.68,1.04,22.17.84,45.19.84,69.04,0,5.34.08,10.67.37,15.99.88,5.19-1.43,12.06-1,17.57-.3.73.52,1.26,1.23,1.61,2.11,1.63.36,1.86,2.3.35,1.61l-6.57-1.49c-53.46.37-107.03-.64-160.42.51Z"/>
      <path class="cls-54" d="M291.78,107.19c1.19.64.84,1.35-.49,1.46-.08.59-.18,1.17-.35,1.73-.87,2.94-8.9,14.58-11.33,16.39-.47.35-.98.64-1.51.92.6,1.73-2.53,6.13-4.39,5.86.09,1.48-.61,2.37-1.95,1.46.13-5.55-.04-10.92-.49-16.11-.17-.39-.17-.87,0-1.46-.54-.12-.87-.44-.98-.98,2.5-2.84,5.47-5.98,7.81-8.79v1.95c1.4.14,2.94-.18,4.08-1.04.78-.58,1.01-1.56,1.5-1.92,1.21-.9,6.72-.77,8.09.52Z"/>
      <path class="cls-55" d="M313.26,258.06c-.14.43-.3.42-.49,0-.52-15.93-.41-31.92,0-47.85-.36-19.53-.36-39.06,0-58.59-.36-7.32-.36-14.65,0-21.97-.36-5.86-.36-11.72,0-17.58l-.49-13.67c-.7.64-1.07.47-1.66-.09-2.26,3.89-6.22,5.09-7.44-.12-2.48-1.8-3.03-3.85-1.65-6.14,1.76-2.98,10.97-18.12,11.23-20.02.14-.43.3-.42.49,0,.44,62-.33,124.04,0,186.04Z"/>
      <path class="cls-114" d="M163.36,176.52c.53,1.51.34,3.3-.59,5.36-1.27,2.19,4.63-.2,5.62-.87.93-1.81,1.86-2.49,2.79-2.05,1.68.52,3.5.13,5.46-1.17l.89.69c3.31-.39,5.09.63,5.34,3.06,1.64-.28,3.04,1.26,1.5,2.31-7.93,3.69-17.18,8.09-25.39,10.74-1.48-1.28-2.43-3.3-2.85-6.06l-2.4-1.76c1.38,3.55-2.23,5.1-2.07,1.47.86-3.22,1.89-6.14,2.93-9.28,1.22-3.09,2.12-2.78,2.69.9l1.8,1.53c.31-2.17,1.98-6.83,4.3-4.87Z"/>
      <path class="cls-130" d="M225.86,31.01c5.96.54,11.36,3.83,15.62,7.81-1.65,1.89-3.63,4.3-4.89,6.35-.69-1-5.78-3.9-5.85-4.39,0-.05.42-.26.49-.46-2.13-.02-1.64-1.24-2.75-2.4-5.74-.19-11.5-.58-17.27-.55l-.47-.49c-7.26,1.86-10,.06-8.24-5.4l2.85-.46c6.73-.42,13.75-.7,20.51,0Z"/>
      <path class="cls-106" d="M290.8,4.65c1.1.38,2.31.37,3.42,0,6.93.52,11.8,3.6,16.6,8.3.53.93-.08,1.76-1.82,2.51l-.17,2.25c-.73,2.75-1.53,3.45-2.41,2.07-.7.73-1.19.4-1.46-.98l-1.52-.06c-6.31-6.07-14.47-7.27-20.85-.59l-1.55.16c-1.47,0-2.33-.38-1.19-1.86-2.11-.55-3.12-2.62-3.69-4.49,2.56-2.61,3.01-3.21,6.35-4.88,1.49-.69,1.31.63.99,1.85,2.42,1.91,8.45-.73,4.1-2.7l-.2-1.11c1.29-.27,2.07-.41,3.42-.49Z"/>
      <path class="cls-147" d="M244.42,49.08c.63-.6.82-.73,1.55-.63.31.04,3.96,3.81,3.83,4.34-.74.86-.72,2.02-.5,3.13.23,1.78-1.73,3.96-3.42,4.39.02,1.26-2.59,4.29-3.91,3.91-1.26-.52-2.33-.12-3.23,1.19l-2.63,1c-.1,1.48-.11,3.03,0,4.64.16.38.25.73.13.97-1.03,1.94-5.26,6.41-7.02,8.17-.18.18-.52.18-.91.14-2.66,2.81-4.65-.64-3.09-3.25,1.83-.35,2.33-3.23.71-3.92-.94,1.06-2.24,1.6-2.01-.15,6.16-7.16,12.08-14.6,18.55-21.48.45-.06.94-.54,1.46-1.46.18-.3.29-.69.49-.98Z"/>
      <path class="cls-76" d="M195.1,106.7c.63-.21,1.42-.82,2.37-1.85,5.64.76,3.77,7.35-.89,8.34.32.76.64,1.52.96,2.3,1.17.82-.74,3.33-1.95,2.93-.82,2.73-3.47,6.07-6.35,6.84-2.3-1.49-4.55-.82-6.76,2.01.03,2.16-.36,4.03-1.18,5.62-3.1.48-6.21,1.15-9.31,2l-.81-.84c7.34-9.57,16.06-18.2,23.93-27.34Z"/>
      <path class="cls-119" d="M48.62,138.44c.33,1.76.51,3.63,0,5.37.62.19.54.56,0,.98.5,2.25.94,5.04,0,7.08.35,6.18.52,13.38,0,19.78.25-6.72.39-13.55.4-20.47l.58-.04c.1,27.99-.13,56,0,83.98-.47,4.78-.47,9.5,0,14.16,0,.49,0,.98,0,1.46-1.12,3.64-.18,7.93-.49,11.72-.65.15-.72-.79-.73-1.21-.08-7.96.41-15.96.26-23.95-1.83-21.04-.93-42.51-1-63.7-1.22-3.28-1.21-6.49,0-9.77,0-1.79,0-3.59,0-5.37-1.55-17-1.64-34.27,0-51.27-.95-.62-.95-1.34,0-1.95l1.1.46c.31,10.84.27,21.76-.12,32.74Z"/>
      <path class="cls-33" d="M296.66,37.36c2.98.68,6.37,5.26,6.35,8.3.32,2.08.85,4.17,1.58,6.26,3.25,1.83,1.32,4.6-1.71,4.05.3,1.6-.07,2.85-1.13,3.76l.29,1.07c-.99,1.21-1.83,2.68-2.93,3.91-.54-.01-.87-.17-.98-.49-.69.65-.94.37-.49-.49-.87-1.92-2.17-3.71-3.91-5.37l-.54-.92,3.67-5.24c-1.71-2.5-3.75-4.73-5.87-6.89l-.19-1.6c-1.43.78-3.88-2.51-3.42-3.91,1.03-1.52,3.25-3.1,5.12-3.8-2.41-.39-5.26-4.09-1.7-3.53,1.85-.56,6.22,2.94,5.86,4.88Z"/>
      <path class="cls-114" d="M189.24,125.25c-.06,1.75-1.19,3.21-3.42,4.39-.51,2.9-4.06,6.4-6.84,7.32-.35.72-.76.8-1.37.38.68,3.15-.26,4-3.25,4.93-.71,1.46-.8,2.78-.26,3.96.86,1.87-.58,5.07-2.44,5.86-2.47.47-7.73.98-7.32-2.44,2.2-6.1,2.8-10.36,6.84-15.62l4.69-.88c1.09-1.43,4.9-.86,5.07-1.07.29-.35.32-4.2.59-5.04.3-.98,1.44-1.11,2.07-1.86.28-.33.17-1.17.34-1.33s4.36-.48,4.59-.46c.75.07.42,1.42.71,1.85Z"/>
      <path class="cls-76" d="M271.76,17.34c1.86,1.31,3.16,3.37,3.92,6.18,1.34.93,2.49,1.89,3.46,2.87-1.52.35-2.68,1.23-3.51,2.63-1.53-.22-2.81.05-3.83.81-1.42-1.1-1.92-.71-1.5,1.18l.27,1.07-4.42,5.8-1.23-.03c.88,1.24-2.14,4.08-3.42,3.91-.14.43-.3.42-.49,0-1.32.19-1.27-.41-1.05-1.56-2.26-.06-6.39-.31-4.81-3.32,5.53-6.57,10.89-13.12,16.6-19.53Z"/>
      <path class="cls-88" d="M311.8,32.48l1.07.16c.3,1.44,1.51,2.01,3.63,1.7,1.33-1.92,2.37-1.7,2.62.58.14-.43.3-.42.49,0-1.56,9.59-11.51,18.43-17.58,25.88-3.2-.93-.34-1.6-.08-2.78s-1.01-2.27,1.31-3.56l.97.97c2.62-2.24.39-1.59-.67-3.23-1.12-1.74-.44-3.29-.79-4.07-.23-.5-2.33-2.1.24-2.46,3.77-3.62,6.33-7.76,7.69-12.41l1.1-.78Z"/>
      <path class="cls-38" d="M41.29,233.16c.1-.88.82-2.98,1.22-3.9,1.23.65.95,2.8,1.45,3.43s2.8.23,3.37,2.47c.48,1.9.69,12.56.21,14.25-.53,1.87-2.65.18-3.8,2.05.91,2.1,3.74,1.56,3.91,1.71.48.44-.46,11.18-.23,12.95.29.88.88,1.49,1.53,2.11.19.19,2.31,1.88,2.61,1.05.13.28.71,1.04.98,1.46.9,1.63-.22,2.03-1.77,1.37-2.95,3.4-6.66.52-6.53-3.32-.41-.02-.7-.18-.85-.53l-.61-6.75c-.13.95-.5,1.25-1.48.94-.42-5.57-.41-12.27,0-18.07.68-.19,1.02.1,1.29.63.29-2.95.71-7.52-1.29-9.42-.36-.59-.42-1.82,0-2.44Z"/>
      <path class="cls-70" d="M103.3,100.84c-2.59,2.44-3.61,5.26-8.18,3.54-1.94-2.44-10.55-9.71-10.86-12.12-.45-3.51,3.09-5.88,6.12-4.13,1.73,1,5.44,6.58,6.9,6.79,1.8-.89,2.9-2.6,4.54-3.83,4.88-4.5,3.55-.65,1.56,2.87.69,2.53.59,4.46-.3,5.79l.21,1.11Z"/>
      <path class="cls-70" d="M223.91,73.01c.38,1.03,1.07-.74,1.69-.81,2.32-.25,2.52,2.79,1.93,4.24-.82,2-3.22.09-1.17,4.38l1.95-.49c-.71,2.31-2.77,4.67-4.88,5.86-.62,1.97-2.45,4.2-4.39,4.88l-.67.19c-1.85-2.47-5.93,3.3-6.57,5.16-1.87,1.66-6.28-.55-5.46-2.91,5.88-6.81,11.71-13.69,17.58-20.51Z"/>
      <path class="cls-98" d="M113.07,90.58c-2.53,1.2-5.12-2.14-4.88-4.88-.6.15-.6-.18,0-.98,3.16-3.18,9.83-11.77,12.92-13.68,4.22-2.61,8.69,1.42,5.63,6.12-2.36,3.62-10.24,9.93-13.68,13.42Z"/>
      <path class="cls-114" d="M219.03,91.07c-.17.73-.39,1.42-.82,1.95-4.62,5.76-9.5,11.58-14.81,16.6-.76,2.15-3.43,5.6-5.86,5.86l-1.46-.48c-1.63-3.62,1.44-2.58,2.65-3.94,1.82-2.03,1.86-5.32-1.56-5.25-1.36.03-.62,2.12-2.08.89,3.75-4.36,7.46-8.82,11.23-13.18l2.06,2.11c3.84,1.31,2.4-.48,3.47-1.96.24-.33,1.28-.78,1.82-1.34,1.73-1.82,2.9-4.73,5.35-1.24Z"/>
      <path class="cls-84" d="M135.04,152.11c-2.56-2.23-.98-6.84,1.22-6.84h20.26c-.46,1.32-2,7.52-2.93,7.81l-15.57-.19c-.99-.36-1.99-.63-2.99-.79Z"/>
      <path class="cls-7" d="M44.22,268.81c1.34.31.55,2.43,1.06,2.85.13.11,2.94,1.05,3.11,1.06,1.06.03,1.55-1.42,2.19-1.75.59-.3,1.31,1.63,1.95-.21,2.22,3.52,6.74,7.02,10.74,8.3l-3.9,1.22c2.45,1.55.33,2.1.48,2.91.12.7,2.3,1.07,2.68,1.71.27.47-.78,1.91,1.04,1.93l-.29.53c-2.25,1.36-6.55-1.17-8.83-2.52-2.45-1.45-4.75-3.19-6.69-5.28-1.64-1.77-4.67-5.09-3.52-7.34.13-.41-.03-.89-.49-1.46-.45-1.19-.29-1.84.49-1.95Z"/>
      <path class="cls-114" d="M298.13,64.22c.81.28.2,1.15-.49,1.46-.16.38-.31.63-.49.98-1.22.19-2.04,1.17-2.44,2.93-.7.62-1.19,1.28-1.46,1.95-.21.12-.36.43-.49.49-.48.4-.81.89-.98,1.46-3.77,4.83-7.83,9.43-11.72,14.16-1.74-1.23-1.74,2.28-3.42,1.95l3.41-5.63c-.03-1.08-1.68-1.44-1.49-2.91.03-.26.83-.23.89-.49.21-.87-.06-2.67.1-3.67l-1.46.49c-.04-2.49,3.74-7.47,6.35-7.32,1.38-.5,2.36-.54,3.86-.04,1.46-.56,2.87-1.2,4.24-1.92-1.23-2.86.47-4.32,5.09-4.39l.49.49Z"/>
      <path class="cls-97" d="M150.67.74c-4.28.02-9.15.47-13.67.49-2.43.42-4.9.41-7.32,0-2.61.01-5.22-.01-7.81,0-1.45.42-2.93.41-4.39,0-4.71.02-9.45,0-14.16,0-3.57.41-7.17.41-10.74,0-1.63,0-3.27,0-4.88,0-1.62.41-3.27.42-4.88,0-1.14,0-2.28,0-3.42,0-1.95.41-3.92.41-5.86,0-3.9.01-7.82-.01-11.72,0-.04.62,1.93,1.45,1.91,1.69-.39,3.45-4.08,4.65-7.11,4.62-1.29-.01-1.99-.91-2.86-.92-1.32,0-3.24,1.6-5.78.97-.53-.13-1.68-4.15-3.25-3.93,5-1.51,9.99-2.93,15.35-2.94h90.61Z"/>
      <path class="cls-36" d="M255.16,36.87c.55,3.27,4.42,1.65,5.86,2.69.97.7-.89,1.26,0,2.2.12.32.2.64.18.95-.08,1.12-8,10.37-9.94,10.77-.65,0-.97.32-.98.98.95.88.27,1.71-.98,1.46-2.63-1.08-.16-2.23-.49-3.65-.25-.77-1.32-.28-1.38-.35-.66-.83-.69-2.73-3.01-2.83,3.07-4.38,7.35-8.18,10.74-12.21Z"/>
      <path class="cls-143" d="M276.15,11.97c1.73.13,1.49,1.72,2.2,2.43,2.63,2.61,3.03.04,5.61-.47-.74,1.46-2.19,2.22-3.38,3.21-1.07.89-.06.59.45,1.18.21.42.02.57-.49.49-3.77.56-4.51,1.39-2.23,2.5l-1.68,2.39c1.66-.25,5.79,1.57,5.86,3.42.8.51.67,1.13-.38,1.85l.2,2.24c1.04,1.7,3.03,5.53-.31,4.7-.77,1.08-2.72.45-2.44-.98-1.08,1.15-4.17-1.06-3.42-2.44-.19-.58-.9-.61-1.46-.49-.74,1.28-3.37-.21-4.39-.98-1.99-1.25-1.04-3.03.98-2.93l.24,1.46c.54-2.46,3.49-.97,4.09-1.53s-.22-2.25,2.99-1.89c-.18-.88-1.58-.73-2.4-1.28-1.79-1.21-2.54-3.91-3.46-5.69-.22-.43-1.16-.17-.97-1.81,1.42-1.59,2.62-3.56,4.39-5.37Z"/>
      <path class="cls-27" d="M150.67,163.34c-1.14,1.63-1.68,6.62-2.68,7.82-.58.7-9.28.68-10.72.45-2.9-.46-4.56-3.76-2.93-6.3.21-.33,1.79-1.98,1.93-1.98h14.4Z"/>
      <path class="cls-99" d="M49.59,60.31c2.34,27.62-1.75,58.47,0,86.43-.57.13-.9-.52-.98-1.95.01-.32-.01-.65,0-.98.52-1.73.32-3.62,0-5.37-1.04-8.26.27-17.69.02-26.15-.06-2.01-.53-5.06-.99-7.06-1.47-6.7-1.06-14.1.26-20.78-.57-9.41-.42-18.45.46-27.1l.74.03c.33.82.49,1.8.49,2.93Z"/>
      <path class="cls-87" d="M319.12,27.11c.33,2.12-1.32,1.28-2.48.13-2.65,1.34-4.19.5-6.31-1.11l-1.18-.21-3.08-5.02.35-1.12c1.94,1.27.27-.7.6-1.37.05-.11.61-.06.72-.35.34-.91.13-2.93.21-3.06.09-.15,2.46-1.48,2.86-2.05,4.64,4.54,6.77,7.83,8.3,14.16Z"/>
      <path class="cls-132" d="M74.98,317.64c5.52-.96,11.08-.96,16.6,0h7.32c19.36-.96,38.74-.96,58.11,0h7.32c.45-.95,1.02-.95,1.46,0,1.08-.43,2.33-.42,3.42,0,13.83-.96,27.68-.96,41.5,0h2.44c3.08-.47,6.19-.43,9.28,0,9.27,0,18.57-.1,27.83,0,.92-.41,2.02-.46,2.93,0,.23.03.44.25.49.49H60.33c.51-.81,1.85-.49,2.68-.5,3.99-.04,7.99.01,11.97,0Z"/>
      <path class="cls-127" d="M109.65,104.26c1.21-1.85,1.47-4.66,2.22-5.83.45-.69,3.13-2.32,3.95-3.13,1.26-1.24,2.32-3.34,4.08-4.22v9.03c0,2.06-2.2,6.25-3.42,8.06-2.36-1.59-3.75-3.63-6.84-3.91Z"/>
      <path class="cls-24" d="M50.57,38.34c2.93-1.24,6.1-1.5,5.86,2.64,1.19-.07,1.85.35,1.96,1.27-.75.49-3.19,2.88-3.89,3.68-3.4,3.88-5.34,9.23-4.9,14.39-.04-.49-.37-2.27-.49-2.93-.79.06-1.12-.76-.98-2.44-.71-1.16-.71-2.7-.02-4.62-2.06-2.98-2.19-5.67-.38-8.07l-.09-.98c-1.05-1.28,1.67-3.92,2.93-2.93Z"/>
      <path class="cls-80" d="M227.81,215.58c-.72.34-1.34.58-2.16.51-27.36.07-54.79.05-82.06-.51-2.6-.05-3.85,1.14-7.08,0h91.31Z"/>
      <path class="cls-1" d="M108.19,85.7c.06.06.63-.13.83.12.41.48.07,1.87.77,2.68.26.31,2.61,1.8,3.28,2.08-3.34,3.4-6.26,6.96-9.77,10.25-3.27-.89-.16-1.84-.13-2.68,0-.27-.96-2.23-.81-3.86.2-2.2,1.64-3.32,2.41-5.18-.75.96-2.23,1.43-2.92,1.95.9-1.38,2.12-2.44,3.42-3.42.87-1,1.84-1.65,2.93-1.95Z"/>
      <path class="cls-94" d="M270.29,116.46c1.34-.14.87.06.98.98-.12,3.18-.28,6.28-.49,9.28-.14,2.38-.3,4.66-.49,6.84-.05.75-.38,1.23-.98,1.46.63.72.35.98-.49.49-1.35,1.38-2.57,2.88-3.68,4.5l-.71-.11c-.41-1.5-.24-3.36-.04-4.99,2.86-1.53,5.59-7.44.1-6.42l-.55-1.77c-.14-.73-.3-1.54-.49-2.44,2.35-2.49,4.57-5.24,6.84-7.81Z"/>
      <path class="cls-12" d="M164.34,149.67l.97,1.46.49-1.46c-.72,1.75,2.06,1.86,3.21,1.89,1.23.03,2.37-2.01,2.65.55-.15,4.88-1.9,10.29-4.88,14.16-.19.53-.84.53-1.95,0l-.79-.78c1.13-2.09,1.73-4.2,1.82-6.35-2.21-.6-3.37-1.81-3.46-3.62.67-1.94,1.25-3.91,1.95-5.86Z"/>
      <path class="cls-114" d="M56.92,33.94c.51-.28,1.07-.17,1.1.35.16,2.49.57,3.17,3.14,2.09.84-2.72,2.02-3.95,3.52-3.67l3.42.02c1.08-1.21,1.71.66.54,1.75l4.59,1.72.29,1.15c-2.57-.09-3.73-.22-5.96-1.11-.94-.37-1.54-1.23-2.58-1.34-1.33,1.18.31,2.63-1.72,3.67,3.3.59-2.3.78.49,1.22-1.57,1-3.81,1.43-5.37,2.44l-3.42-.49c1.49-5.04-1.4-2.34-4.39-3.42-.42-2.01,4.61-5.58,6.35-4.39Z"/>
      <path class="cls-114" d="M310.33,26.13c1.44-2.5.76,2.02,2.93-.49-.18,3.97,3.59-1.73,4.65,1.95.56-3.4.77,2.31,1.22-.49.24,1,.35,1.3.49,2.44,0,1.88-.17,3.67-.49,5.37-.39-.49-.45-1.2-1.22-.98-1.06,2.87-3.41.37-5.62,1.47.43-1.18-.34-2.15-.49-2.93-1.55-.46-2.28-5.11-1.46-6.35Z"/>
      <path class="cls-1" d="M223.42,155.04c-2.93-2.31-.77-1.5-.33-2.54s.33-2.23.33-3.32c.59,0,.79,1.07,1.46.77,1.62-.73,3.23-4.34,4.42-5.39.55-.49,1.76-.65,1.88-.81.35-.5-.31-2.09-.25-2.88.06-.66,1.07-5.19,1.3-5.35,1.23-.27,2.08.83,3.18.96,1.6.18,1.37-1.7,2.16,1.46-4.79,5.61-9.34,11.49-14.16,17.09Z"/>
      <path class="cls-82" d="M199.49,81.31h-62.99c.72-.27,1.33-.63,2.16-.51,19.05,1.34,40.39-1.71,59.17-.01.98.09,1.02.29,1.65.52Z"/>
      <path class="cls-89" d="M263.46,151.62c.38,31.41.39,62.83,0,94.24-.14.43-.3.42-.49,0,.03-.16-.02-.33,0-.49v-98.63c-.23-7-.23-14,0-21v-.98c.16-.17.33-.32.49-.49.49,9.11.41,18.23,0,27.34Z"/>
      <path class="cls-50" d="M151.64,188.24l1.46,1.46c.16-1.05-.47-2.02-.38-3.06.04-.48.75-3.02,1.36-3.28-.87,3.81,2.28,3.24,3.33,5.24.78,1.5-.19,4.75,2.04,5.02l-.48.97c-.19.06-.57.73-1.29.88-.83.17-3.35.29-4.08.1-.94-.24-2.66-2.77-2.84-3.79-.36-2.07.56-2.33.88-3.54Z"/>
      <path class="cls-114" d="M162.38,155.53h.97c-.66,2.23,2.92,1.99,3.36,3.24.85,2.4-1.27,5-1.89,7.51.42.16.42.33,0,.49-.14.38-.39.56-.77.58-2.11.11-5.76-.06-5.09-2.53,1.05-3.11,2.35-6.19,3.42-9.28Z"/>
      <path class="cls-22" d="M155.06,201.91c-.82-.94.1-1.12.46-1.71,2.11-3.44,2.95-4.81,7.11-6.09-.09,1.1,2.09,4.88,2.78,5.26.74.41,2.29-.36,2.83.59-4.25.8-9.12,2.83-13.18,1.95Z"/>
      <path class="cls-63" d="M156.53,173.1c.73-1.18,2.6-.73,5.4.52,1.02-.45,1.82-.46,2.41-.03,1.92.33,2.97,1.53-.07,1.43l-.91,1.01c.42.14.42.3,0,.49-3,.92-3.01,3.71-3.42,6.35-2.55-.95-4.89-2.92-3.91-5.85l-.91,2.27-.55-.32c.56-1.68.9-3.86,1.48-5.61l.48-.25Z"/>
      <path class="cls-67" d="M164.83,166.27l.73-.98c.42.08.05,1.38,1.22.98,1,.95.88,1.31-.49,1.46-.34.02-.51.35-.49.98,1.08,1.01.69,3.63-.98,3.42-.1.64-.27,1.12-.49,1.46-.31.02-1.05,1-2.19,1.02-1.52.02-2.86-1.58-4.57-1.16l-.09-.83-.54.91-.43-.43c.09-1.91.89-3.61,1.46-5.37,2.38.08,4.66-.24,6.84-.98.04-.15-.04-.33,0-.49Z"/>
      <path class="cls-37" d="M24.69,13.92c.29,1.23-1.92,1.79-1.94,2.2-.08,1.17,5.27.1,5.86.45,2.72,1.63.82,8.11-3.6,4.61-1.79-1.42-.76-2.58-.89-2.78-.24-.38-2.21-1.11-2.84-.75-.51.28-1.53,2.08-1.95,1.17,2.03-1.98,3.07-3.07,5.37-4.88Z"/>
      <path class="cls-123" d="M287.38,5.14c1.41.44,2.33,1.21,3.41,2.19-.98.98-1.46,2.52-2.9,2.96-1.29.4-4.92.43-5.33-1.12-.2-.74.58-1.72-.06-2.08,1.75-.87,2.81-1.51,4.88-1.95Z"/>
      <path class="cls-43" d="M.76,166.27c.38.05.95.16.98.44.24,2.15.15,6.17,0,8.38-.19,2.78-.42,4.17-.98,6.81.38.04.96.17.98.45.29,4.57.17,10.3,0,14.92,0,.16-.33.32-.74.47.16,4.85.08,9.66-.24,14.43,1.23.72,1.24,1.23,0,1.95-.14.43-.3.42-.49,0-.07-21.8-.02-43.63,0-65.43.14-.43.3-.42.49,0,.19,5.85.19,11.71,0,17.58Z"/>
      <path class="cls-18" d="M.76,104.74c1.63,7.56,1.24,15.39,0,22.95l.9,1.67c.05,4.22-.25,8.39-.9,12.49,1.38,1.55,1.52,5.37,0,6.84h-.49c.02-18.71-.06-37.44,0-56.15.14-.43.3-.42.49,0l.63,1.53c-.34,3.51-.55,7.07-.63,10.68Z"/>
      <path class="cls-30" d="M.76,233.65c.76,2.75.84,5.52.22,8.3l-.22,16.6h-.49c-.64-14.49.04-29.84,0-44.43h.49l.62,1.96c-.5,2.62-.91,5.36.32,7.8-.66,3.1-.98,6.36-.93,9.77Z"/>
      <path class="cls-152" d="M307.89,69.59c1.45-1.83,2.73-3.95,4.25-5.73.3-.35-.02-.92,1.12-.62.02,2.92-.02,5.86,0,8.79h-.49c.25-1.79-.17-4,0-5.86-.97.05-.32,1.8-.5,2.58-.02.1-1.34,1.51-1.44,1.56-.56.31-2.25-.51-2.95-.72Z"/>
      <path class="cls-35" d="M225.86,279.55c-.97-3.36-.03-6.41.02-9.5.08-5.21-.97-16.52-.02-20.77v30.27Z"/>
      <path class="cls-73" d="M49.59,146.74c-.02,1.46.03,2.93,0,4.39,0,.06-.5.55-.51,1.18-.12,5.86.26,11.77.02,17.62-.02.6.37,1.81-.49,1.7v-19.78c0-2.34-.11-4.61,0-7.08l.98,1.95Z"/>
      <path class="cls-12" d="M158.97,164.8l.97,1.46c.26-2.59,1.12-.05,1.31,0,.95.26,2.5-.11,3.58.49-.41,1.7-1.96,1.77-3.72,1.91-1.16.09-2.36-1.29-2.15.53l-.97-1.46c.32-.98.65-1.95.98-2.93Z"/>
      <path class="cls-117" d="M.76,68.61c.44,6.99.26,14,0,21,1.32.93,1.33,2.01,0,2.93h-.49c.03-9.29-.17-18.91,0-28.32.14-.43.3-.42.49,0,0,1.46,0,2.93,0,4.39Z"/>
      <path class="cls-46" d="M135.04,152.11c.22-1.28,3.27-.88,1.95.48l16.6.49c-5.23-.41-11.24.56-16.37.01-1.24-.13-1.32-.23-2.18-.99Z"/>
      <path class="cls-126" d="M262.97,146.74h-.49c.76-4.73-.07-13.08,0-18.32.01-.83-.31-2.17.5-2.68v21Z"/>
      <path class="cls-151" d="M49.59,249.28c-.81-.51-.49-1.85-.5-2.68-.04-3.69-.36-7.96.5-11.48.02,4.71-.05,9.45,0,14.16Z"/>
      <path class="cls-92" d="M294.71,69.59c.54-1.92-1.22-2.31,1.22-3.9l1.22.97c-.83,1.58-1.06,1.84-2.44,2.93Z"/>
      <path class="cls-142" d="M319.61,34.92h-.49c.23-1.69-.57-4.05.49-5.37.3,2.48.43,2.7,0,5.37Z"/>
      <path class="cls-31" d="M108.19,85.7c-.72.92-2.25,1.44-2.93,1.95.61-1.31,2.02-2.01,2.93-2.93.06.27-.09.89,0,.98Z"/>
      <path class="cls-136" d="M.76,64.22h-.49c.03-1.49-.07-2.91,0-4.39.88.96.48,3.02.49,4.39Z"/>
      <path class="cls-106" d="M294.71,69.59c-.34,1.2-.37,1.3-1.46,1.95-1.14-1.52.94-1.54,1.46-1.95Z"/>
      <path class="cls-140" d="M312.78,261.97v-3.91h.49c-.01.58.11,4.67-.49,3.91Z"/>
      <path class="cls-106" d="M299.1,64.71c-.42.47-.48,1.08-1.46.98.17-.39.33-1,.49-1.46.08-.24-.06-.67,0-.97.81-.19.3.93.97,1.46Z"/>
      <path class="cls-30" d="M257.6,317.64c-1.12.15-1.95.41-3.42.49.69-.93,2.35-.37,3.42-.49Z"/>
      <path class="cls-115" d="M294.22,4.65c-.62.81-2.8.81-3.42,0,1.06-.06,2.37-.08,3.42,0Z"/>
      <path class="cls-59" d="M32.5,309.82h1.95s-.49.98-.49.98c-.61-.32-1.01-.72-1.46-.98Z"/>
      <path class="cls-78" d="M242.46,51.52c.44-.47.65-1.24,1.46-1.46-.32.52-.28,1.53-1.22,1.94l-.24-.48Z"/>
      <path class="cls-106" d="M292.76,72.03c-.13.64-.61,1-.98,1.46l-.49-1.46c.42-.09,1.18.12,1.46,0Z"/>
      <path class="cls-30" d="M285.43,306.89c-.17.53-.52.73-.98.98-1.07-2.11.85-.94.98-.98Z"/>
      <path class="cls-9" d="M234.16,285.41c.26-.12.52-.2.74-.15,3.33.86-6.86,5.13-7.67,4.85-.69,2.25-2.12,4.1-4.29,5.55h-54.69c-.45.94-1.02.94-1.46,0-29.6-.34-59.27.45-88.87,0l-3.27-1.69c-4.56.09-7.57-1.25-9.04-4.03-3.12-1-2.47-2.72.59-1.6.16,0,.33,0,.49,0,21.86.17,44.15.34,66.89.49,9.57.35,19.4.52,29.18.07,21.13.52,42.16.5,63.1-.07-.25-.18-.09-.34.49-.49.03-1.35,1.22-1.61,1.95-.49.95-1.33,4.34-3.05,5.86-2.44Z"/>
      <path class="cls-30" d="M168.24,295.66c.09,0,.75.52,1.65.52,4.82.01,9.65-.09,14.46-.03.11.85-1.11.46-1.7.48-1.56.06-9.58-.28-5.6,3.15,2.12,1.83,4.28-1.3,6.84,0l1.92,4.18c-2.64,1.33-11.41,0-10.78,4.15.21,1.42,3.64,2.68,5.12,2.64.41,0,5.58-1.53,4.69.29-.74,1.51-2.72.31-3.72.32-8.12.09-14.37,1.96-22.75.77-1.36-.19-3.51-1.29-4.04-1.3-.82-.03-5.37,2.25-5.05-1.12.54-5.56,4.05-.11,4.66.06,2.87.82,4.49-3.42,1.76-4.24-1.52-.46-4.64.47-6.73.39-.78-.03-9.42-1.31-9.04-2.19,1.86-4.42,4.46-2.35,8-3.23,1.67-.42,3.08-1.78,4.85-1.42.39.08.39.79.68.97,2.12,1.29,2.49-.67,3.86-.84,1.05-.12,7.96,1.54,7.49-1.3-.2-1.24-2.27-.84-2.42-1.76,1.36.53,3.64-.48,4.39-.49.49,0,.98,0,1.46,0Z"/>
      <path class="cls-62" d="M98.91,317.64l-1.95-.73c2.41-2.01,5.64-1.91,8.52-2.71,2.03-.57,4.52-2.02,6.59-2.2,4.94-.42,11.01,1.26,15.87,1.27,9.43,0,14.91-3.26,24.53.47,1.22.47,7.6,2.02,4.55,3.91-19.36,0-38.75,0-58.11,0Z"/>
      <path class="cls-41" d="M269.32,255.62c-.3-.03-2.04,4.4-2.72,5.34-1.39,1.91-3.8,3.35-5.09,5.4-1.28.81-1.59,1.68-2.44,2.44-.59.53-1.02,1.06-1.46,1.46-5.55,4.99-10.32,10.06-15.62,15.14-1.23,1.18-2.64,2.28-3.91,3.42-1.98.55-4.51,1.26-6.77,2.13.07,1.7-.28,2.94-1.04,3.73-1,.39-3.24.78-4.39.98h-2.93c-.04-2.11,2.42-3.39,2.96-4.24.35-.56.24-1.67.56-2,.25-.25,5.18-1.69,6.58-2.45.23-.13,2.17-1.15,1.13-1.56l-.43-.94c11.49-11.01,22.99-22.03,34.49-33.05l1.1.3v3.91Z"/>
      <path class="cls-138" d="M43.73,270.76c.53.55.7,1.04.49,1.46,2.79,7.64,11.43,13.41,19.04,15.14.83.19,2.2.56,2.93.98-.58.02-2.05-.38-1.95.48,2.74-.65,2.29,1.98,3.71,2.89,2.37,1.53,8.71-.16,9.96,3.95-6.44-.1-12.43.59-18.55-1.95-11.9-4.93-17.01-15.08-17.58-27.34,1.46.38,2.11,1.84,1.95,4.39Z"/>
      <path class="cls-83" d="M164.34,317.64l-4.39-.49c.15-.74,2.13-1.36,2.71-1.43,1.6-.2,3.26.14,4.85-.04,6.93-.75,12.86-2.68,19.61-3.24,5.56-.46,7.2-.13,12.68.74,3.34.53,3.58.35,6.91,1.39,1.23.38,7.1,1.02,4.01,3.07-13.83,0-27.68,0-41.5,0-1.09-.41-2.32-.41-3.42,0-.49,0-.98,0-1.46,0Z"/>
      <path class="cls-17" d="M74.98,317.64c-3.74-1.01-8.06-.34-11.97-.49-.59-.02-1.82.37-1.7-.48,1.05.17,3.6-.95,4.14-.96,1.48-.02,2.68,1.39,5.76.83,3.66-.66,1.63-1.95,1.88-3.02.26-1.13,3.54-1.29,4.58-1.29,1.55,0,6.44.26,7.71.53.17.04,1.5,1.71,2.79,2.18,1.55.57,5.38.44,5.37,1.96,0,.55-1.73-.07-1.96.74-5.53,0-11.07,0-16.6,0Z"/>
      <path class="cls-30" d="M158.48,296.15c-.59.92-2.63,1.4-3.63,1.5-1.72.17-4.53.04-5.65-1.5h9.28Z"/>
      <path class="cls-30" d="M191.68,309.83c.23.21.12,1.36-.74.95-.93-.73-3.21,1.66-3.65.26-.4-1.3,3.65-1.88,4.39-1.21Z"/>
      <path class="cls-30" d="M222.44,317.64c-3.09,0-6.19,0-9.28,0,2.71-.97,6.54-.85,9.28,0Z"/>
      <path class="cls-30" d="M253.2,317.64c-.86-.12-2,.01-2.93,0,.49-.8,2.47-.78,2.93,0Z"/>
      <path class="cls-71" d="M103.3,1.23c-3.15.82-7.59.82-10.74,0,3.57,0,7.17,0,10.74,0Z"/>
      <path class="cls-71" d="M136.99,1.23c-1.91.83-5.52.81-7.32,0,2.44-.01,4.89.01,7.32,0Z"/>
      <path class="cls-71" d="M79.38,1.23c-1.4.83-4.56.81-5.86,0,1.95,0,3.91,0,5.86,0Z"/>
      <path class="cls-71" d="M87.68,1.23c-1.08.83-3.9.81-4.88,0,1.62,0,3.26,0,4.88,0Z"/>
      <path class="cls-71" d="M121.86,1.23c-.91.82-3.48.82-4.39,0,1.46,0,2.93,0,4.39,0Z"/>
      <path class="cls-97" d="M44.22,5.62h-1.46s0-.97,0-.97c.67-.15,1.3.26,1.46.97Z"/>
      <path class="cls-7" d="M199.98,167.24c.97-.27,1.66-.32,1.72.76-.59,2.48-.68,4.83-.25,7.05-5.35,2.9-10.54,5.69-16.11,8.3-.33.15-.65.33-.98.49l-.48-1.46c-3.03.58-1.35-1.06-2.43-2.22-.8-.85-2.8-.74-3.92-.72v-.97c-.67-.68-.37-.99.49-.49.16-1.37.52-1.49,1.46-.49,1.66-.18,2.8-.67,3.42-1.46-.15-.2-.28-.41-.34-.63-.24-1,14.4-7.91,16.48-8.76l.94.61Z"/>
      <path class="cls-16" d="M205.35,162.85c.43.51,1.37,2.72,2.06,3.25.3.23,3.19.76,3.8.66.06,1.84-1.95.21,0,2.44-3.61,3.67-5.69,3.65-9.77,5.86-.55-.37-1.16-.07-1.33-.95-.19-1.03.48-4.14.52-5.54.02-.79.67-.65-.65-1.33-.26-.68.11-1.27,1.11-1.76-1.39-1.03-1.92-2.07-1.6-3.12-.43-1,.1-1.24,1.05-1.27-1.17-1.25-1.62-3.18.42-2.64,1.8-.41,4.9,2.58,4.39,4.39Z"/>
      <path class="cls-5" d="M203.89,15.88c.25.07,1.14.54,1.46.73l-1.6,1.56c-1.72.29-8.44,3.43-7.21-.54.06-.18,3.14-1.65,3.44-1.75,1.15-.37,2.78-.31,3.91,0Z"/>
      <path class="cls-5" d="M210.24,16.86c-.44,1.19-1.2,1.3-1.95.24l1.95-.24Z"/>
      <path class="cls-56" d="M40.8,210.21c.46,14.8.34,29.63,0,44.43-.14.43-.3.42-.49,0,0-.33,0-.65,0-.98,0-2.6,0-5.21,0-7.81,0-10.68.44-21.86,0-32.48-.02-.6.37-1.81-.49-1.7v8.79c-.91-.46-2.58-.26-3.43.24-.77.46.44,1.43.54,2.43.46,4.77-4.62,2.22-5.41,3.93-.51,1.11,3.1,1.54,3.4,2.47.32.99-.57,1.68-1.32,2.05-3.08,1.57-13.48,1.62-16.59.21-.8-.36-1.6-1.65-2.28-1.53-.5.09-2.48,2.64-3.75,3.11-1.46.54-3.29.15-4.65,1.22-.79,1.13,1.51,2.78.71,3.88-.1.13-1.34.36-1.87.8s-2,2.13-2.23,2.18c-1.16.27-.82-1.54-1.7-1.46l-.49,18.55c.03-8.29-.03-16.61,0-24.9.07-2.99.28-5.92.64-8.78,6.24.71,23.27-2.95,5.87-1.72-.26,2.32-6.02.12-6.3-.4-.4-.72-.34-8.15,2.06-6.11,1.23,1.23,2.52,2.34,3.86,3.35,1.27,0,11.95-.93,12.02-1.53-3.57-1.41-9.7-5.7-2.77-7.21,2.25-1.43,4.39-2.98,6.43-4.66l.79.4c.9,3.18,2.86,4.41,5.88,3.7-4.63-4.34,1.3-9.07,5.89-8.52,3.72,2.74,4.09,2.89,3.63-2.26-.18-1.8.33-2.59,1.53-2.39.36,4.2.52,8.43.49,12.7Z"/>
      <path class="cls-51" d="M1.25,66.17c.07-3.59.13-7.2-.48-10.74l2.46.77c.67-2.12,2.99-6.28,4.99-7.25,1.21-.59,3.8-.71,4.29-1.06.71-.51.3-2.65,1-3.88.91-1.58,3.76-1.19,2.63-3.23-2.22-.12-6.97.79-7.84-1.91-.17-.52-.41-1.49-.15-1.93.39-.65,8.29-2.04,9.47-2.02,1.91.03,3.7,1.52,5.83,1.49,1.38-.02,5.66-.31,6.84-.53,1.57-.29,2.9-1.63,5.53-1.8,1.09-.07,2.19.63,3.2.3.89-.29.93-1.88,2.14-2.28,2.02-.67,11.97-.91,12.83-2.06-.46-1.78-3.81-4.54-.27-4.9,5.22-.53,8.69-1.06,14.13-.4,2.1.25,5.15,1.4,6.93,1.43,1.59.03,2.25-1.08,3.34-1.02.81.04,1.59.84,2.51.97s5.73.14,6.08.51c.12.13.04,1.11-.23,1.48-.71,1-2.7,0-3.91-.04-4.25-.13-9.96-.66-13.45,1.98-.58.17-1.23.33-1.95.49-.77.45-2.1.35-2.93,0-1.25-.8-2.49-1.14-3.71-1.01-7.25,3.11-15.02,5.04-22.75,6.56-3.35.49-6.96,3.52-5.9,7.13-1.32,1.34-2.45,2.9-3.37,4.67-3.9,2.02-8.87,2.39-13.16,1.93l-1.87,2.4c.58,3.35-1.02,5.74-4.81,7.17l-1.06,1.51c-1.08,2.37-3.74,7.83-6.35,5.28Z"/>
      <path class="cls-145" d="M69.12,30.04c13.47-.34,27.05,0,40.53,0,.83-1.34,3.37-1.08,4.39,0,6.99,0,14,0,21,0,.17-.82,1.66-.8,1.95,0,6.99,0,14,0,21,0,1.14,0,2.28,0,3.42,0-.18-1.47,2.67-1.39,2.93,0,17.81,0,35.66-.2,53.47,0,.83,0,2.17-.31,2.68.5-51.1.27-102.22.44-153.32,0,.34-.73,1.31-.47,1.95-.49Z"/>
      <path class="cls-25" d="M109.65,30.04c.16-2.72,4.23-1.86,4.39,0h-4.39Z"/>
      <path class="cls-25" d="M135.04,30.04c-.53-1.45,2.4-1.58,1.95,0h-1.95Z"/>
      <path class="cls-50" d="M41.29,262.46c0-.06.47-.53.51-1.18.1-1.44-.2-3.06-.02-4.44.09-.68.27-1.43.97-.72.82.82,1.5,10.77,1.47,12.69-.01.84-.47,1.59-.49,1.95-1.05-1.61-1.21-2.74-1.95-4.39-.04-.92-.49-1.85-.49-1.95-.37-.47-.36-.98,0-1.46-.33-.1-.31-.27,0-.49Z"/>
      <path class="cls-26" d="M41.29,264.41c-.06.75.32,1.64-.48,1.46-.03-.32.02-.65,0-.97-.05-.64.02-1.31,0-1.95.14-.43.3-.42.49,0,0,.49,0,.98,0,1.46Z"/>
      <path class="cls-37" d="M64.24,30.53c.97-.06,1.96.04,2.93,0,51.1.17,102.22-.22,153.32,0,1.69,0,4.08-.41,5.37.49-6.28-.57-14.03.05-20.51,0-19.45,1.42-39.15,1.53-58.59,0-.74.4-1.69.4-2.44,0-.89.45-2.19.45-3.91,0-.21,1.18-1.02,1.18-2.44,0-.73.42-1.51.84-2.36.89-3.01.18-13.59.56-15.5-.23-.41-.17-.8-.4-1.18-.65-7.35.64-14.61,1.06-22.03.91-2.13-.04-4.22-.46-6.29-.91-1.25,1.34-2.65,1.32-3.91,0-7.19.2-14.35.2-21.48,0-3.33,1.55-3.66-2.37-.98-.49Z"/>
      <path class="cls-37" d="M164.34,30.04h-2.93c-1.43-1.39-1.62-2.99-1.96-4.88,1.13-.53,6.78-.89,6.81.72,0,.23-1.8,3.34-1.92,4.16Z"/>
      <path class="cls-42" d="M93.42,204.97c20.96-3.07,23.33,26.55,6.09,29.04-22.64,3.28-23.75-26.46-6.09-29.04Z"/>
      <path class="cls-9" d="M238.07,288.83c-2.62,2.36-4.2,4.46-7.81,5.86-.3-.71-.09-4.18.05-4.34.21-.24,5.41-1.94,6.07-2.04.96-.15.84-.23,1.69.52Z"/>
      <path class="cls-32" d="M246.37,310.31c-.18,2.57-4.27,1.11-6.11,1.47l-5.6-1.96c3.93-.07,7.83-.09,11.71.49Z"/>
      <path class="cls-7" d="M271.27,246.35c-.19,1.96-.5,3.89-1.95,5.37l-35.16,33.69c-2.03,1.43-3.47,1.93-5.86,2.44-2-.2-1.15-1.31-.09-2.33-1.02-3.59-3.26-3.02-6.7,1.7-2.81-.46-4.68.17-7.37,1.12-13.49.47-27.04.39-40.53,0l.55-1.17,1.12-.27-6.78.36.23,1.08c-1.95.36-3.91.36-5.86,0l-.41-.97c-4.03.54-6.97.27-10.38-2.08-1.87-.1-3.32-.54-4.35-1.34.97-1.01,3.57-3.06,4.88-2.22.48.31.68,1.42,1.49,1.96,6.48,4.32,11.07-.35,15.83-.24,2.2.05,5.85,1.53,8.38,1.91,1.56.23,3.19-.08,4.77.11s3.3,1.08,4.92,1.15c2.38.11,7.54-2.36,9.73-3.72.57-.35.67-1.27,1.13-1.4.77-.21,9.14-.17,10.14.02,1.49.28,2.16,2.24,3.65,2.7,1.28.39,6.32.41,7.23-.38.56-.48.43-2.09.65-2.28.44-.36,2.41.46,2.88-.54,1.05-.14,2.19-.3,3.42-.49v-.49c1.76-.4,7.53-5.95,9.28-7.56,6.99-6.42,13.94-13.15,20.76-19.77,1.43-1.39,5.79-5.3,6.09-6.85h.49c.17-30.92.33-62.33.49-94.24-.35-.31-.36-.65,0-.98,1.63-.52,3.91-.83,5.4.23-.38-2.22.1-3.11,1.44-2.67l.45,5.61c-.46,31.37-.45,62.21.03,92.53Z"/>
      <path class="cls-106" d="M147.74,283.94c6.77-.5,6.27,2.63,10.57,2.9,2.04.13,4.39-1.44,5.79.52l-1.22.98c-13.99.4-28,.39-41.99,0,1.12-2.4,1.46-3.92,4.52-3.31s5.02,1.25,8.44.9c1.55-.16,2.77-1.03,3.88-1.04,1.77,0,4.29,2.39,6.11,1.26,1.61-1-.22-1.9,3.91-2.2Z"/>
      <path class="cls-20" d="M120.88,288.34c13.99,0,28,.02,41.99,0,1.95,0,3.91,0,5.86,0,1.61-.96,3.27-.96,4.88,0,13.5-.03,27.03.15,40.53,0,3.55-1.28,8.86-1.49,12.21,0-.15.16-.3.38-.49.49-20.69.62-41.56.64-62.6.07-9.91.21-19.94.38-29.68-.07-21.39,0-42.82.23-64.22,0-.83,0-2.17.31-2.68-.5,18.02-.43,36.17,0,54.2,0Z"/>
      <path class="cls-118" d="M226.84,280.53c-.61.97-2.37.34-3.42.49H69.36s-1.7-.48-1.7-.48h159.18Z"/>
      <path class="cls-42" d="M93.54,172.13c-10.02-2.71-15.73-12.09-10.74-21.97,4.08-8.09,16.37-9.92,23.18-4.38,6.38,5.19,6.84,14.93,1.71,21.22-4.08,5-8.27,4.42-14.15,5.14Z"/>
      <path class="cls-43" d="M276.71,273.62c-.27-.42-.17-2.88.15-3.37.37-.57,4.03-1.49,4.9-1.48,1.43,0,2.28.65,3.48.86,1.88.32,1.89-1.29,3.37,2.11.77.18,1.81-1.2,2.55-1.38,1.85-.46,8.03,3.64,4.68,4.73-2.08.67-8.22-.88-11.14-.93-1.65-.03-6.96,1.1-8-.53Z"/>
      <path class="cls-113" d="M273.71,133.55c.88.94,1.93,1.52,3.13,1.74,2.74,2.01,5.46,2.96,8.16,2.83,3.1-5.77,6.96-.48,7.67,3.93l.96.26c6.29-2.79,11.21,1.43,13.71,7.01l.9.16c1.5-2.01,3.74-1.23,4.04,1.16.36.32.35.67,0,.98.36,3.09.36,6.19,0,9.28-.33.38-.8.55-1.41.5-.17,4.33-3.61,7.34-7.88,7.55-1.88,5.53-11.3,3.82-7.54-1.83l-1.25-.3c-6.31.58-7.87-2.26-2.68-6.1-1.41-.39-2.98-.49-4.45-.35,2.09,7.15-5.85,4.82-6.64-.54-3.21.53-5.61.07-7.22-1.38.14,7.19-.19,14.36-.98,21.51.96,5.52.96,11.08,0,16.6,1.34,11.53,1.37,23.14,0,34.67,1.21,2.31,1.22,4.53,0,6.84-.01,2.76.01,5.54,0,8.3l-.48-.49c-.35-36.94-.35-73.89,0-110.84.52-.46,1.56-1,1.95-1.46Z"/>
      <path class="cls-56" d="M272.25,231.21l1.01-.27c1.18,1.09,4.71.82,4.31-1.15-1.45-.74-2.53-1.57-1.75-3.37,1.63-3.77,16.5-1.41,19.76-.66,4.7-2.14,9.06-.48,9.79,5.08l2.52.6c.96-2.66,3.64-3.14,4.41-.23.32,6.82.29,13.68,0,20.51-2.73-3.09-3.89,2.51-6.74.39-.8-.59-2.03-6.33-1.99-7.5.06-1.53,1.58-2.72.81-5.25-.34-1.12-3.95-5.15-5.26-5.51-2.07-.57-4.65,1.75-6.62,1.8-.92.02-.63-.91-1.31-1.17-.89-.34-4.1-1.29-4.89-1.22-2.14.19-2.25,2.12-3.64,2.26-1.9.18-2.32-1.75-5.37-.01-2.2,1.25-1.75,3.87-5.03,2.54.01-2.27,0-4.56,0-6.84Z"/>
      <path class="cls-79" d="M271.27,118.9c.49,42.31.49,84.63,0,126.95-.01.16.02.33,0,.49-.81-.51-.49-1.85-.5-2.68-.33-31.81.26-63.66,0-95.47-1.1-2.46-1.08-5.11-.97-7.75-1.28,1.85-2.58,2.81-3.92,2.87-2.45-1.93.98-6.09,2.93-7.81.03-.02.47-.46.49-.49.38-.58.87-1.07,1.46-1.46-.27-2.26-.49-4.6,0-6.84,0-2.96-.41-6.51.49-9.28.06.47-.01.99,0,1.46Z"/>
      <path class="cls-40" d="M271.76,135.02c.02,36.94-.01,73.9,0,110.84h-.49c-.93-42.26,1.24-84.72,0-126.95.81.51.49,1.85.5,2.68.06,4.47-.01,8.97,0,13.43Z"/>
      <path class="cls-43" d="M312.78,258.06c.02,1.3-.01,2.61,0,3.91-.32-3.43-.45-6.68-.49-10.25-.07-6.83.01-13.68,0-20.51-1.22-5.54-1.21-11.06,0-16.6-.5-1.56-.5-3.02,0-4.39.14-.43.3-.42.49,0,0,15.93-.24,31.92,0,47.85Z"/>
      <path class="cls-52" d="M136.51,226.33l55.67.24c-17.75-.08-35.72.95-53.47.24-.68-.03-2.01.34-2.2-.49Z"/>
      <path class="cls-94" d="M41.29,105.23l.35-8.94c2.11-2.05,3.07,5.32,2.93,6.79.16,1.64,1.02,2.77,2.67,3.05l.4,1.06c-.12,17.08-.01,34.19,0,51.27l-1.22-2.93-1.22,1.95c.85-3.03-.94-5.28-1.35-7.68-.2-1.14.1-4.05-.16-4.47-.11-.18-1.56-.82-1.85.26-.34,1.25.04,3.17-.06,4.58,1.12.63.85,1.6-.49.98-.4-14.46-.62-29.01,0-43.46-.38-.7-.4-1.75,0-2.44Z"/>
      <path class="cls-6" d="M41.29,151.13c.96,1.28.96,2.62,0,3.91.36,7.32.47,14.66,0,21.97.57,1.02.35,2.7,0,3.91,1.55.4,1.49,5.33,0,5.86v46.39c-.09.77.04,1.64,0,2.44,1.41,1.7,1.36,7.06,0,8.79v18.07c0,.16,0,.33,0,.49h-.49c0-.16,0-.33,0-.49-.38-2.59-.49-5.25,0-7.81-.04-14.8.1-29.63,0-44.43-.31-7.07-.31-14.06,0-21-.42-10.06-.43-21.09,0-31.25-.3-15.95-.3-31.9,0-47.85-.23-.74-.55-1.82,0-2.44.14-.43.3-.42.49,0-.45,14.32.03,29.08,0,43.46Z"/>
      <path class="cls-94" d="M47.64,173.59c-1.55-1.36-1.46,1.98-2.2,1.94-.12,0-1.67-1.68-1.7-1.8-.23-1.08-.24-7.51-.05-8.7.14-.89,1.86-1.6,2.24-2.67l1.71,1.46c0,3.25,0,6.52,0,9.77Z"/>
      <path class="cls-10" d="M41.78,176.03c.76-.39,1.23-1.29,1.45.24.29,2.01,1.43,11.34,0,12.45-.88.69-1.57-1.61-1.95-1.95v-5.86c.22-1.47.38-2.94.49-4.39-.33-.1-.31-.27,0-.49Z"/>
      <path class="cls-91" d="M41.78,150.15c1.38-.34,1.96,2.94,1.98,3.68.05,1.85-1.08,3.5-.03,5.6l-1.95-2.93c-.19-.42-.35-.91-.49-1.46,0-1.3,0-2.61,0-3.91.48-.13.46-.56.49-.98Z"/>
      <path class="cls-94" d="M41.78,156.5c.04,1.13,0,2.28,0,3.42.79.46.79,1.01,0,1.46.06,4.98.18,9.75,0,14.65,0,.16,0,.33,0,.49-.06.33-.1.54-.49.49,0-7.32-.02-14.66,0-21.97.64.23.47.93.49,1.46Z"/>
      <path class="cls-91" d="M41.78,159.92c1.45-.43,1.55,1.84,0,1.46,0-.49,0-.98,0-1.46Z"/>
      <path class="cls-68" d="M235.63,109.63c.85-.86,1.39-.38,1.64,1.46,3.31-1.26,10.27.12,8.62,4.4-.21.25-.28.73-.49.98-12.18,14.41-24.41,28.81-36.63,43.2-.89,1.05-2.08,2.84-3.41,3.19-1.44-1.7-2.81-2.89-4.39-4.39-1.3.68-4-1.49-3.42-2.93-.96.38-1.34-.02-.98-.98.35-1.22,1.48-3.04,2.93-2.93,6.79-10.15,14.83-19.68,23.93-27.83.52-2.99,3.88-6.73,6.84-7.32,2.76,2.11,4.17-3.03,4.39-5.37-.9-1.13-.44-1.69.98-1.46Z"/>
      <path class="cls-135" d="M312.29,98.4c.38,4.54.39,9.13,0,13.67.36,1.14.36,2.29,0,3.42-1.23.37-2.07-.56-2.53-2.79l-1.26-.05c-3.21-1.82-6.89-2.32-11.05-1.5-1.92-.07-5.8-.44-6.15-2.49.17-.26.17-.98.49-1.46,3.24-5.04,6.69-9.94,9.77-15.14-.8,3.49,1.06,3.65,2.46,5.6.61.84.25,1.91,1.25,2.68,2.47,1.91,4.73-3.4,5.33-3.38l1.71,1.46Z"/>
      <path class="cls-90" d="M284.45,52.01c.37-.24.77-.37,1.21-.33.47.05,6.47,5.9,6.91,6.46l.18,1.19.23,1.17c-2.6,2.92-5.11,6-7.25,9.28l-1.28.29c-2.48,1.96-4.31,4.86-6.35,7.32-10.59,12.82-21.53,25.44-32.23,38.09-.06-2.49-3.36-3.95-5.62-3.95-.79,0-3.82.88-4.15.53-.18-.2.4-2.14-.49-2.45.47-.96.96-1.92,1.51-2.83s1.1-1.81,1.77-2.62c7.99-9.67,16.11-19.3,24.24-28.85,1.38-1.62,3.04-2.96,4.7-4.27.91-1.06,1.26-1.95,1.03-2.66l14.46-16.59,1.11.21Z"/>
      <path class="cls-26" d="M27.62,265.39c.89-.43,2.58-2.15,3.27-2.34,1.84-.52,3.83.88,4.37-1.89.15-.79-.46-2.45-.2-2.96.13-.26,2.8-2.67,3.29-2.86,1.13-.45.94.04,1.48.78-.09,4.01-.99,2.52-1.39,3.72-.97,2.93.87,4.76-4.27,5.52-2.08.31-4.68-.07-6.55.04Z"/>
      <path class="cls-47" d="M40.8,262.46c-.9-2.18-.48-5.33-.49-7.81h.49c0,2.6-.04,5.22,0,7.81Z"/>
      <path class="cls-143" d="M90.61,31.01c3.19.67,6.4,1.44,9.64,2.31,2.38-1.49,4.58-1.79,6.62-.89.13,4.04,2.62,4.81,7.45,2.3,2.74.67,3.66.08,2.76-1.78-1.14.17-8.41.48-6.34-1.73,2.75.13,5.47.06,8.18-.22,6.24.04,12.86-.32,19.04,0,1.61.13,2.07.66,1.36,1.58-4.45,3.44,6,2.93,5.44,1.85-.25-.48-2.75-2.39-3.77-2.32l-.58-1.1h3.91c.77.39,1.67.39,2.44,0,19.52,0,39.07-.14,58.59,0l-2.44.98c1.89,2.15.14,1.16.08,1.68-.39,3.44,1.78,4.43,4.96,3.68.46-.11-.22-1.02,2.52-.97,1.21.02,1.61-.32.74.98-23.94.12-48.09.38-72.04.51-3.63.02-10.2.23-13.57-.52-.4-.09-.16-.98-1.05-1.03-1.47-.07-2.48.88-3.91,1.05-4.69.56-10.16.47-14.91.47l-8.79-.49c-1.3,0-2.61,0-3.91,0-1.4-.71-2.77-1.48-4.12-2.33-.54,1.21-1.61,1.98-3.21,2.33-.65,0-1.3,0-1.95,0-2.09.41-4.25.44-6.35,0-1.3-.02-2.61.04-3.91,0l-5.86-2.2c-1.13-1.12.8-1.45.98-2.19-1.17.17-4.55-.47-5.16.47-.3.47.29,1.17.17,1.39-.08.14-.76.23-1.04.61-.36.49-.35,1.24-.81,1.66-.5.45-2.98.96-3.6.78-.4-.11-.31-1.14-.79-1.72-.32-.39-1.2-.54-1.46-1-.17-.32,2.15-.64.97-1.22-.44-1.52,2.64-2.89,3.42-1.46.94.07,1.91-.09,2.93-.49-.65-.71-.37-1,.49-.49.43.14.42.3,0,.49.92.3,2.53.53,2.93,0-.43-.14-.42-.3,0-.49,6.66-.39,13.33-.55,20.02-.49,1.3-.02,2.61.02,3.91,0Z"/>
      <path class="cls-19" d="M102.33,38.34v.49h-35.16v-.48c1.01-.55,2.07,0,2.69,0h32.47Z"/>
      <path class="cls-114" d="M93.05,37.36c-2.44,0-4.89.02-7.32,0-.32-1.39,1.07-.83,1.71-1.45.57-.55.52-1.9,1-1.98.82-.14,4.67,2.13,4.62,3.44Z"/>
      <path class="cls-114" d="M105.74,37.85c-2.79,0-6.19.41-8.79-.49,2.8,0,6.19-.42,8.79.49Z"/>
      <path class="cls-114" d="M83.77,37.36c-1.57.83-4.88.81-6.35,0,2.11.04,4.24-.02,6.35,0Z"/>
      <path class="cls-53" d="M291.29,108.65l4.19,1.43c4.56.52,9.93-1.61,13.63,1.99,1.33-3.04,1.73,2.6,3.17,3.42.36,4.72.36,9.44,0,14.16.36,2.93.36,5.87,0,8.79-.67.05-1.35-.36-2.06-1.21-4.33,1.19-6.27-.77-5.83-5.9l-1.52-.14c-2.44,1.82-4.07,1.31-6.62-.02-3.4.82-6.29.35-8.68-1.42-3.81,3.18-7.53,2.28-9.48-2.05,4.59-6.06,9.04-12.66,13.18-19.04Z"/>
      <path class="cls-60" d="M278.11,127.69c2.78.11,1.3,2.73,4.65,2.96,2.84.19,3.98-1.99,4.79-1.91s2.19,1.64,3.61,1.79c1.14.12,4.21-.5,5.28-.32s2.18,1.26,3.5,1.26c1.63,0,1.84-1.88,4.58-1.12s-.89,5.65,2.67,6.15c2.23.31,3.74-1.62,5.1,1.94.36,4.07.36,8.14,0,12.21-3.18-2.78-2.58-.48-3.87-.2-2.58.57-3.21-3.39-4.43-4.93-1.3-1.63-4.57-3.15-6.61-3.2s-3.45,1.86-5.32.48c-1.17-.87-.56-5.24-3.68-6.11-2.25-.62-1.7,1.7-3.05,2.38-2.7,1.36-6.55-1.99-9.06-2.95-1.92-.74-1.89.98-2.55-2.56,1.37-1.59,3.04-4.07,4.39-5.86Z"/>
      <path class="cls-140" d="M312.78,210.21h-.49c-.96-8.45-.96-16.94,0-25.39-.96-7.97-.96-15.96,0-23.93,0-3.09,0-6.19,0-9.28.14-.43.3-.42.49,0,0,19.52,0,39.07,0,58.59Z"/>
      <path class="cls-11" d="M312.78,151.62h-.49c0-.33,0-.65,0-.98,0-4.06,0-8.14,0-12.21,0-2.92,0-5.87,0-8.79.14-.43.3-.42.49,0,0,7.32,0,14.66,0,21.97Z"/>
      <path class="cls-53" d="M312.78,112.07c-.14.43-.3.42-.49,0,0-4.55-.02-9.12,0-13.67,0-1.86-.08-3.76,0-5.62.02-.59-.37-1.82.48-1.7.02,6.99,0,14,0,20.99Z"/>
      <path class="cls-60" d="M312.78,129.65h-.49c0-4.71,0-9.45,0-14.16,0-1.14,0-2.28,0-3.42h.49c0,5.85,0,11.73,0,17.58Z"/>
      <path class="cls-139" d="M167.76,175.06c1.19-.88,2.59.08,1.95,1.46,1.45-.52,2.31,1.3,1.46,2.44-1.23.74-.89,1.96-2.26,2.87-.63.42-7.23,2.78-7.5,2.5.2-2.68,1.1-5.3,1.95-7.81.05-.14-.04-.33,0-.49.83-1.64,2.86-1.27,4.39-.98Z"/>
      <path class="cls-109" d="M175.57,173.59c2.74-1.45,2.89,2.49,2.44,4.39-.17.06-.33.42-.49.49-1.02.4-4.07,1.85-4.73,1.86-1.02.02-1.13-.8-1.61-1.37-.58-.7-1.02-1.95-1.46-2.44-.17-1.67,4.55-3.84,5.86-2.93Z"/>
      <path class="cls-42" d="M304.96,18.81c2.96,4.66,1.94,8.66-1.11,12.94-1.41,1.97-4.83,6.58-7.19,5.62-1.57-1.58-4.05-3.48-5.86-4.88l-1.4.16-6.54-4.18-.36-1.35c-1.71-1.03-4.83-2.3-5.86-3.42-.54-1.13-.49-1.59.63-.99.32-1.58,1.47-3.46,3.27-3.89.15-.17.33-.32.49-.49,8.1-8.36,15.84-7.02,23.93.49Z"/>
      <path class="cls-74" d="M306.43,19.78c1,1.09,3.29,4.89,3.91,6.35,1.04,2.48,1,3.94,1.46,6.35-.26,2.04-.74,4.01-1.74,5.83-.39.71-5.72,7.53-6.12,7.81-.19.13-.79-.47-.93-.45-1.82-2.92-3.92-5.85-6.35-8.3,3.33-1.73,8.91-8.4,9.1-12.03.11-1.99-.97-4.45-.8-6.52.39.37,1.15.63,1.46.98Z"/>
      <path class="cls-110" d="M262.48,42.73c-.23.93-.48,1.89-1.07,2.66-3.7,4.85-8.06,10.04-12.12,14.61-.71.8-1.46,1.57-2.44.8-1,.84-1.18.85-.98-.49,1.19-1.4,2.22-2.99,3.42-4.39.37-.44.63-1.05.98-1.46-.24-.68.29-1.16.98-.98,3.25-3.87,7.14-7.34,9.77-11.72h.49c.92-1.06,1.68-.2.98.98Z"/>
      <path class="cls-36" d="M241.97,64.22c.17.18.32.37.37.58.11.43-4.46,5.96-5.74,6.26-.14.42-.3.41-.49,0-.48-.29-1.42-.43-1.46-.49-.31-.45.73-1.26.78-1.71.03-.24-.51-.64-.51-.95.03-3.27,1.29-2.1,3.3-3.31,1.25-.74,1.96-3.45,3.75-.38Z"/>
      <path class="cls-120" d="M237.09,72.03c-3.2,5.73-7.49,10.66-12.7,14.65-.99.85-1.18.85-.98-.49,1.65-1.92,3.23-3.94,4.88-5.86,2.63-3.06,5.57-5.9,7.81-9.28.12.07.37-.07.49,0,1.05-.29.95.11.49.98Z"/>
      <path class="cls-144" d="M246.86,60.8c-2.1,4.59-5.51,8.51-9.77,11.23-.18-.23-.33-.88-.49-.98l5.37-6.84c1.22-1.1,2.86-2.69,3.91-3.91l.98.49Z"/>
      <path class="cls-133" d="M196.08,119.88l.43.97c-1.91,2.18-2.55,4.2-1.91,6.06,1.63.79,3.84,2.12,2.94,4.2-.21.63-.44,1.26-.73,1.86-.68,1.39-9.39,12.31-10.19,12.4l-1.28-.59c-1.3.82-3.49-1.01-2.93-2.44-1.21-1.91.16-3.32,4.09-4.22.57-2.49.84-5.03.79-7.62-1.11.45-1.74.37-1.46-.86,1.1-1.48,2.21-2.99,3.42-4.39,2.02-2.35,4.31-4.51,6.35-6.84,1.35-.45,1.47.71.49,1.46Z"/>
      <path class="cls-39" d="M204.38,110.12c.04,2.18-1.31,3.94-3.42,4.39.72,1.46-2.55,4.59-3.91,5.37-.12,1.31-.54,1.23-.98,0l-.49-1.46c.75-.85,1.52-2.43,1.95-2.93,1.74-1.99,4.09-3.83,5.86-5.86,1-.84,1.18-.85.98.49Z"/>
      <path class="cls-79" d="M49.1,57.38c-2.12,3.24-.43,7.45-.46,11-.11,12.27-.91,24.44-1.01,36.85,0,.65,0,1.3,0,1.95-5.9-.79-3.13-6.35-5.13-10.25-1.18-.23-.69.95-.72,1.7-.09,2.2-.4,4.58-.49,6.6-.41-4.59-.4-9.96,0-14.65,1.03-.45,1.47,1.69,1.24,1.76-.67.2-.8-.59.2-.57.14-2.43.54-5.42,3.28-6.11l.58-1.27c-.73-8.47-.77-17.11-.1-25.9l1.15-1.61c-1.09-.99-.99-1.81.49-1.95.47.57.85,1.74.98,2.44Z"/>
      <path class="cls-73" d="M48.62,143.81c.07-1.78-.05-3.59,0-5.37.01.09.43.7.51,1.67.09,1.05.26,3.03-.51,3.7Z"/>
      <path class="cls-3" d="M282.01,35.9c1.41-.95,5.73,2.15,5.37,3.91,1.07.93,2.37,2.82,3.42,3.91.24.28.62.74.49.95-.46.73-5.22,6.77-5.64,6.94s-.81.07-1.2-.08l-.99.69c-3.44-2.66-6.88-5.29-10.34-7.88l.1-1.11c-1.11.84-1.61.24-.98-.98-.24-.3-.56-.79-.39-.99,1.38-1.69,4.83-5.14,6.53-6.53l1.18.2c.53.32,1.63.44,2.44.98Z"/>
      <path class="cls-21" d="M293.73,58.36c.54,1.23.25,1.5-.98.98-3.3-1.52-5.29-5.29-8.3-7.32-.43-.14-.42-.3,0-.49l6.35-7.81c2.69,2.8,5.15,5.22,7.27,8.62l-4.34,6.03Z"/>
      <path class="cls-106" d="M290.8,32.48c-2.65,1.14,2.52,2.7,2.66,2.89.16.22.17,1.52.76,1.99-3.43-1.44-3.88,2.64-6.84,2.45-1.27-1.1-3.9-2.94-5.37-3.91,2.22-1.06-.3-2.89-.65-4.49-.06-.29-.27-2.84-.26-3.1,0-.35,1.36-.51,1.39-1.2,3.09,1.85,5.37,3.1,8.3,5.37Z"/>
      <path class="cls-106" d="M297.64,63.73c-1.29,2.66-3.11.17-4.43,2.18-1.09,1.66,2.25,2.17-1.26,3.65-.6.25-3.25,1.38-3.43,1.43-.79.2-1.72-.61-2.73-.36-.83.21-1.52,2.08-2.3,1.16.75-.42.71-1.18.97-1.71,1.22-2.42,6.24-8.65,8.3-10.74.37-.37.4-.55.98-.98.1-.07,1.19.12,1.95-.98-1.59,3.03,3.73,2.7,1.96,6.35Z"/>
      <path class="cls-42" d="M190.7,155.53c1.45-.51,4.5.75,3.91,2.44l.63,1.06c-.18,2.41-15.15,13.18-18.13,14.74l-1.54-.18c-1.55.97-4.17,1.96-5.86,2.93-.41-.45-1.4-1.04-1.95-1.46-1.36.15-3.82-1.47-2.93-2.93.58-1.29.6-2.37.98-3.42-.09-.68.08-1,.49-.98.17-.48.31-.98.49-1.46,1.68-4.69,3.19-9.49,4.88-14.16.71-1.95,1.69-3.91,2.44-5.86-1.27-.78-.08-3.89,1.33-4.3,1.94-.56,9.3,6.35,9.61,8.73l5.48,3.53.18,1.32Z"/>
      <path class="cls-81" d="M174.1,146.25l-1.46-.49c-.08-.44.74-3.67.96-4.04.36-.59,2.61-.87,3.2-1.82.8-1.3-1.12-2.79.48-3.89l1.7.97c.22,1.8,1.36,3.17,3.42,4.11v1.26c1.06.98,2.01,1.64,2.92,2.44,2.15-.07,5.68,2.72,5.86,4.88,1.31.19,2.44.68,1.46,1.95,1.13,1.43.47,5.35-1.95,3.91-1.64-1.22-5.34-3.28-6.34-4.16-.79-.7-.9-2.17-1.69-3.19-.26-.33-5.77-4.92-6.13-5.1-1.88-.99-1.79,1.49-2.44,3.18Z"/>
      <path class="cls-128" d="M185.82,129.65c.35,1.15,1.48-1.24,2.44-1.46.07,1.77-.05,9.72-1.09,10.62-1.13.98-5.02.92-4.76,3.54-1.99-1.82-5.53-2.85-3.42-5.37s4.66-4.85,6.84-7.32Z"/>
      <path class="cls-29" d="M274.69,31.99c.52-.21,1.22-.03,1.46.49.04.21,2.9,2.13,3.42,2.44l-7.32,7.32c-2.66-.03-6.09-2.04-7.32-4.39,1.23-1.44,4.26-6.04,5.37-6.84s2.94.47,4.39.98Z"/>
      <path class="cls-34" d="M272.25,42.24c.34.24.62.72.98.98.82,1.45-2.69,3.71-3.91,2.93l-1.16.09c-1.59-1.59-3.49-2.76-5.68-3.51l-.98-.98c.76-1.6,2.4-2.72,3.42-3.91,2.47,1.34,5.01,2.8,7.32,4.39Z"/>
      <path class="cls-148" d="M41.29,235.6l1.96-.24c.15,4.01,1.85,10.05-1.46,12.94.5-1.37-.43-3.08-.49-3.91-.21-2.58-.14-6.17,0-8.79Z"/>
      <path class="cls-153" d="M224.4,86.68c-1.39,3.86-4.21,7.3-7.81,9.28-2.61,5.42-7.32,10.64-12.21,14.16l-.98-.49c5.25-6.02,10.36-12.45,15.62-18.55,1.41-1.64,2.98-3.24,4.39-4.88l.98.49Z"/>
      <path class="cls-38" d="M44.22,272.22c-.17-.47-.53-.47-.49-1.46.18.28,1.92.86.49,1.46Z"/>
      <path class="cls-147" d="M251.25,53.47c-.36.43-.76.71-.98.98-.84-.98.07-1.83.98-.98Z"/>
      <path class="cls-100" d="M280.55,18.81c-.1.11-.1.8-.47,1.22-1.09,1.25-2.47,2.28-3.44,3.66-.36-.39-1.4-1.46-.97-1.95.93-1.08.83,1.25,1.46.97,1.69-2.42-2.55-1.16-1.94-2.67.37-.92,4.45-2.76,5.37-1.23Z"/>
      <path class="cls-107" d="M274.69,31.99l.3-.4c2.58.41,1.14.77,1.17.88-.53-.03-.98-.32-1.46-.49Z"/>
      <path class="cls-49" d="M169.22,317.64h-3.42c.62-.81,2.8-.81,3.42,0Z"/>
      <path class="cls-136" d="M64.24,30.53c-.32.02-.65-.02-.97,0v.48c.64.03,1.3-.02,1.95,0,.43.14.42.3,0,.49-.37.4-1.05.32-1.46,0-.2.05-.37.45-.49.49-1.03.42-2,.59-2.93.49-1.39.42-2.17.86-3.42,1.46-3,1.45-3.92,2.24-6.35,4.39-1.2,1.07-1.88,1.63-2.93,2.93l.1.92c-2.7,4.03-4.48,8.37-5.33,13l-1.12,1.22c-.14.43-.3.42-.49,0-.2,2.17-.36,4.29-.49,6.35l-.33,3.34c-.76,2.34-2.4-1.53-2.7-2.81l-2.19-2.16c.48-4.33-10.16-3.84-10.47-1.4.72,4.2-.44,6.23-3.48,6.1l-3.05,2.03c.38,1.58.04,4.72-1.3,5.7-.47.34-10.5,1.11-9.95-1.67l-4.7.21c.51,3.35.21,6.42-.9,9.21,1.48,1.77,1.1,6.62-.49,8.3,0-6.99.01-14,0-21,.78-.41.47-1.66.49-2.44,4.57-.45,4.08-5.02,7.06-7.83,1.2-1.13,3.21-1.47,3.73-2.13.91-1.18.15-3,.54-4.34.05-.18,2.19-2.95,2.35-3.05.54-.34,2.17.39,3.17.32,2.19-.15,8.35-.74,9.78-1.98.97-.84,1.09-2.12,1.68-3.08.3-.49,1.29-.58,1.44-1.14.2-.75-.67-1.51-.22-2.6.08-.19,2.26-3.15,2.5-3.4,1.82-1.84,9.49-2.76,12.52-3.59,2.49-.68,4.79-1.29,7.34-1.94,3.1-.8,9.44-5.67,11.1-.86Z"/>
      <path class="cls-36" d="M47.64,41.27c2.29-.02-.52,2.8-.34,4.57.12,1.23,1.7,3.18,1.79,4.49.07,1.12-.77,3.18-.96,4.61-.06.49-.39,1.16-.49,1.95-.51,1.31-1.51,2.31-3.02,2.99l.27,13.51c.28,2.44-.6,5.33-3.24,3.75l-.36-8.53c-.36-.32-.35-.67,0-.98.47-2.17.47-4.29,0-6.35-.38-1.47-.46-3.44,0-4.88.51-5.69,2.84-10.79,6.35-15.14Z"/>
      <path class="cls-33" d="M263.95,126.72c.65,1.85,2.63.15,3.77,1.1,2.07,1.72.05,5.6-1.47,7.06-.48.47-1.59.45-1.75.69-.27.42-.06,3.4-.07,4.33l.64.98c-.33,1.71-.06,2.52.82,2.44,1.24-1.28,2.37-2.94,3.51-4.06.43-.42.4-1.07,1.37-.82.02,3.25-.02,6.52,0,9.76-.95.69-.33,2.21-.48,3.18-.39,2.41-1.39.08-2.31-.18-1.26-.35-2.75.74-4.04-.56-.4-7.94-.26-15.98,0-23.93Z"/>
      <path class="cls-121" d="M263.95,126.72c.31,7.83,0,16.05,0,23.93,0,.33,0,.65,0,.98-.14.43-.3.42-.49,0,0-9.11,0-18.24,0-27.34.81.12.45,1.59.49,2.44Z"/>
      <path class="cls-101" d="M268.83,135.51c-.33,2.58-4.16,4.66-2.93,7.81-.42.43-.69,1.35-1.46,1.46,0-1.62-.03-3.26,0-4.88l2.45-3.65c.45-.61,1.53-.49,1.95-.74Z"/>
      <path class="cls-33" d="M270.78,133.55c-.14.43-.3.42-.49,0,.53-.83-.77-5.72.49-6.84,0,2.27.06,4.57,0,6.84Z"/>
      <path class="cls-101" d="M270.29,133.55h.49c-.02.97.02,1.96,0,2.93-1.07.06.27-1.89-1.46-1.46.1-.19-.24-.92.13-1.33.22-.24.82-.09.84-.13Z"/>
      <path class="cls-45" d="M263.46,245.86c.02-31.4-.03-62.83,0-94.24h.49c.03,31.01-.04,62.03.02,93.05l-.51,1.19Z"/>
      <path class="cls-102" d="M164.83,172.13c-.51,1.88,1.77,2.03,2.93,2.93-1.26.81-2.88-.53-4.39.98.45-1.59.6-1.52,2.44-1.47v-.48c-.61.25-1.39-.5-1.46-.49-.23-.72.3-1.05.49-1.46Z"/>
      <path class="cls-12" d="M166.29,167.73c-.14.4-.4.72-.49.98l-.48-1.95h.48s.49.97.49.97Z"/>
      <path class="cls-103" d="M40.31,156.99c.16,1.93-1.01,2.68-3.51,2.26.56,3.23.66,5.57-3.39,5.49-.4.71-.93,1.2-1.59,1.46-4.87.4-7.19.96-6.42,6.21-3.54,3.33-3.72,4.27-.55,2.83,5.39,1.07,3.19,5.56-1.57,3.86l-2.68,1.21c-6.15.88-12.38.5-18.52-.25,0,1.16-.44,1.78-1.33,1.85v-15.62c-.11-5.76.08-11.45.59-17.07,3.62-.06,7.14-.42,10.55-1.09-2.2-5.12.78-7.3,8.94-6.55,3.47,2.69,9.14-.13,12.24-2.48l.88.06c1.58,2.6,5.86,5.26,5.3.35l1.04-.56c.36,6.02.36,12.05,0,18.07Z"/>
      <path class="cls-146" d="M40.31,138.92l-.49,4.88c-2.7-1.48-4.98-.45-6.13-3.94-2.04.43-2.76,2.6-4.88,2.93-.89.14-5.94.93-6.26.89-.88-.1-1.54-1.25-2.52-1.35-.41-.04-7.15.84-7.48,1.04-1.58.98,1.26,4.68-.06,5.56-2.04,1.35-8.66.62-11.24,1.22l-.49,16.11c0-5.84-.13-11.74,0-17.58.05-2.25-.15-4.62,0-6.84.26-2.01.4-4.06.41-6.16,6.12.58,7.86-.7,5.23-3.82-.47-1.22.07-2.17,1.63-2.87.58-2.74,1.83-4.42,3.75-5.02-2.85-10.6,9.27-8.2,15.45-6.03l2.7-.08c1.44-1.49,3.46-2.27,6.05-2.34-2.76-2.26-1.88-3.68,2.63-4.28.8-2.14,1.46-2.43,1.99-.86.21,9.51.13,19.02-.27,28.52Z"/>
      <path class="cls-65" d="M40.31,189.22c.38,2.75.37,5.55,0,8.3-1.18,1.03-.05,6.89-.49,7.33-3.73,1.11-3.52-2.35-6.55-1.94-.62.08-4.27,2.7-4.63,3.22-1.78,2.53,5.99,6.01-1.78,5.57-3.74-.21-2.41-1.92-4.37-4.4-2.17,2.52-5.08,5.37-8.55,5.36-.22,1.31.79,2.19,1.72,2.92,1.64,1.3,8.43,3.12,1.9,4.35-3.5.66-7.18.24-10.67,1.02-2.72-.21-6.28-9.03-5.64,1.48,1.58-.58,3.42,1.14,4.58,1.01.34-.04.33-.83.63-1.01,1.19-.69,6.18-.69,7.75-.51,2.15.24,2.44,1.54.49,2.5-3.83,1.88-9.28.89-13.46,1.43-.45.44.7,6.73-.49,7.81.03-6.5-.14-13.04,0-19.53.01-.65-.02-1.3,0-1.95.32-4.89.4-9.84.24-14.84.22-1.32,11.36-1.07,13.49-.81l1.59-.65c2.51-2.07,4.61-3.71,8.11-3.22-1.71-2.17-.5-3.61,3.61-4.32,1.5-2.2,3.56-2.76,6.13-2.81-5.03-2.49,2.06-5.4,5.08-5.03.07-.68.59-.89,1.3-1.04.38,3.24.37,6.52,0,9.77Z"/>
      <path class="cls-85" d="M40.31,157.97c.39,7.15.37,14.33,0,21.48-.68,2.96-1.09,1.55-3.44,2.17-3.07.81-6.51,2.75-.95,3.2-.2,2.48-2.81,1.31-4.98,2.11-1.75.65-1.78,1.71-2.63,2.22-1.02.61-3.31.63-3.88,1.51-1.19,1.84,3.2,1.24,3.18,2.21-.03,1.17-5.19.58-6.45.86-2.31.52-3.93,3.33-6.51,3.74-2.04.32-3.74-.4-5.34-.36-2.55.08-5.38.75-8.06.39-.13,4.32.17,8.68.04,13-.03.88-.52,1.56-.52,1.65v-30.27l.49-2.93c6.32.79,12.81,1.29,19.17.38,1.1-.16,1.99-1.11,2.63-1.21.98-.15,2.38.89,3.59.1,1.64-1.06-1.39-2.13-2.22-2.04-.52.06-1.97,2.54-2.59-.01s2.48-3.11,2.77-4.39c.26-1.15-.9-1.74.14-3.74,1.6-3.09,4.82-2.1,6.96-2.83.63-.22.63-1.1.91-1.27.68-.42,2.28.1,3.34-.86.63-.57-.53-3.51.04-4.56,1.88-1.33,3.66,1.29,4.32-1.54.35.31.36.65,0,.98Z"/>
      <path class="cls-108" d="M40.31,106.21c-.22,3.04-1.29,4.21-3.25,1.33-3.29.02-7.53-.94-2.89-3.95l-.55-.63c-3.73.39-8.13.79-11.36-1.54-1.89,1.39-2.11,2.78-.64,4.16-1.12,3.06-4.7,3.15-7.53,2.12-1.8,2.22-4.21,3.79-7.23,4.73,1.73,3.02,1.12,4.69-1.82,5.01.35,3.54-.6,5.8-2.84,6.79.44,2.43-.04,3.58-1.43,3.46.05-7.64-.06-15.31,0-22.95.12-3.59.32-7.15.6-10.67,4.25,1.2,7.44,1.9,12.01.87-5.01-6.36,2.46-7.56,7.61-6.77l9.9-.6c5.1-.87,7.54,3.15,5.77,7.36,2.09.75,2.8-.69,2.11-4.32-.16-1.93.36-2.75,1.55-2.47.39,6.01.37,12.06,0,18.07Z"/>
      <path class="cls-124" d="M.76,127.69c0-.06.44-.56.51-1.18.08-.81-.19-3.47-.02-3.7.09-.12,1.74,1.17,2.34-.84.26-.87.41-5.24.63-5.47.13-.13,2.68.03,2.77-1.25.05-.71-2.01-2.39-.75-3.56.37-.34,1.09-.3,1.48-.6,1.94-1.43,2.54-1.09,3.93-1.93.68-.41.94-2.04,2.16-2.39,1.66-.47,3.25,1.17,4.21.87.32-.1.23-.68.71-.93.4-.21,2.14.33,1.93-1.26-.08-.58-1.32-.86-1.13-1.72.15-.71,1.57-2.8,2.24-3.16,1.64-.86,1.26.46,1.84.69,1.97.79,4.6,1.03,6.72,1.05s3.97-1.64,5.11,1.67c-5.58,3.09-.35,1.94,2.08,2.69.8.25,1.66,3.8,2.8-.49.13,1.23.29,2.53.49,3.91,0,15.94,0,31.91,0,47.85-.14.43-.3.42-.49,0,0-.33,0-.65,0-.98,0-6.01,0-12.05,0-18.07,0-8.98.49-18.71,0-27.6-.03-.55.32-1.34-.48-1.21.51,3.13-3.73,2.21-4.4,2.93-.86.93,1.28,1.15,1.46,1.72.79,2.64-3.46,1.96-4.54,2.27-.86.25-1.26,1.5-2.15,1.76-3.9,1.17-8.49-2.32-13.57-1.85-3.52.33-6.48,4.49-3.19,7.07-.51,1.05-2.33.9-2.79,1.35s-1.32,3.42-1.87,4.23c-.37.54-1.56.83-1.67,1.28-.14.56,1.17,1.6,1.38,2.52.92,4.09-4.71,3.27-7.24,3.06-.11,1.37.16,2.83.02,4.19-.06.62-.5,1.11-.51,1.18.23-4.64-.31-9.56,0-14.16Z"/>
      <path class="cls-64" d="M1.25,81.31c1.2-.86,2.55-1.32,4.03-1.24l17.76-.25c2.26.85,3.84.45,4.72-1.17,1.07-5.27,5.73-12.15,11.07-6.59.33-.75.83-1.09,1.49-1.01.36,5.69.36,11.4,0,17.09-1.28,1.33.07,7.52-.49,8.3-1.82-.89-3.9-.37-5.86-.49-.26-2.48,1.98-.84,2.41-2.25.09-.3-.57-3.51-.78-3.97-.68-1.53-4.72-1.16-6.28-1.11-2.65.08-5.47.46-8.3.53s-9.9-1.43-7.96,4.07c.1.28,3.09,1.88.58,2.66-.32.1-6.09.61-6.74.59-1.87-.05-3.7-1.55-5.63-1.49-.51.53.74,8.43-.49,9.76.03-4.06-.07-8.15,0-12.21.02-.98-.02-1.95,0-2.93.05-2.54.43-5.56.49-8.3Z"/>
      <path class="cls-147" d="M214.14,288.34c1.93-1.19,2.14-2.22,4.64-2.34.73-.03,1.55.59,2.36.34,1-.3,2.73-4.85,5.71-4.18.94.21,2.16,2.26,2.3,3.1.31,1.77-2.04,1.22-.85,2.59-.62.13-.86.4-1.95.49-3.83.32-8.28-.04-12.21,0Z"/>
      <path class="cls-122" d="M225.86,288.83c-.42.24-.37.45-1.17.52-22.31,1.89-47.31-1.45-69.9-.06-2.44,1.57-2.57.16-4.34,0-4.37-.39-9.68.09-14.19.04-.83-.01-2.17.31-2.68-.5h92.29Z"/>
      <path class="cls-72" d="M196.08,159.43c1.46-.68,3.92,1.43,3.42,2.93.42.41,2.85,2.98,2.93,3.18.26.68-1.79,1.34-2.44,1.7-2.24,1.24-16.92,7.84-17.09,8.79-.59.76-1.73,1.25-3.42,1.46-.5.16-.97.31-1.46.49-1.67-.66.17-4.3-2.44-4.39,5.65-3.55,13.38-8.82,17.83-13.66.55-.6,1.22-1,1.21-1.96,1.37-.56,1.88.09,1.46,1.46Z"/>
      <path class="cls-77" d="M182.89,176.03s.78.16.49.48c-.77.87-3.69.91-3.91.98l3.42-1.46Z"/>
      <path class="cls-23" d="M200.96,158.46c-1.85,1.54,2.51,2.36,1.46,3.41-.18.18-2.38.07-2.93.49-.79-.77-2.46-2.13-3.42-2.93-.46-1.36-.68-5.19,1.46-3.91,1.2,1.05,2.15,1.72,3.42,2.93Z"/>
      <path class="cls-85" d="M40.8,210.21c-.03-3.99-.47-8.49-.49-12.7-.01-2.76.01-5.54,0-8.3.14-.43.3-.42.49,0v21Z"/>
      <path class="cls-47" d="M1.25,236.09c-.37-.37-.23-1.98,1.21-1.46,1.68.61-.57,2.1-1.21,1.46Z"/>
      <path class="cls-48" d="M118.93,31.01c-2.27,1.11-5.34.2-7.81.49-.11.85,1.11.46,1.7.48,2.35.1,4.73-.07,7.08,0,.1.9-1.8.77-1.95.98-.17.24.8,2.21.49,2.92-1.16.3-2.68-.35-3.66-.24-1.22.13-4.82,1.74-5.88,1.69-.3-.01-2.99-2.32-3.08-2.49-.12-.24.61-1.31.41-1.88-2.31-1.01-4.63,1.3-6,1.32-.67.01-5.85-1.34-6.6-1.66-.54-.23-.55-.92-.71-.99-.74-.33-1.89.15-2.32-.63,9.42-.14,18.9-.06,28.32,0Z"/>
      <path class="cls-48" d="M140.41,31.01c1.44.14,3.64,1.33,5.37.98l-1.95.49c.34,1.36,2.69.38,1.92,2.16-.97,2.27-5.4,1.76-7.3,1.01-2.14-.85-1.31-1.56-.45-3.29.33-.65,1.98-.22-.04-1.36.8.04,1.65-.08,2.44,0Z"/>
      <path class="cls-48" d="M86.7,31.01c-6.44.11-13.47.22-20.02.49-.35.42-1,.28-1.46,0v-.49c7.13.29,14.35-.21,21.48,0Z"/>
      <path class="cls-48" d="M146.76,31.01c-.32.77-2.12.77-2.44,0h2.44Z"/>
      <path class="cls-106" d="M168.73,288.34l-3.9-.73c.48-.68,1.24-.74,1.95-.98,2.71-.93,13.11-.87,15.78-.23.17.04.97,1.8,2.77.97.11.85-1.11.46-1.7.48-3.25.14-6.96-.51-10.01.49-1.62,0-3.26,0-4.88,0Z"/>
      <path class="cls-140" d="M272.25,196.54c.55-.43,1.03-.59,1.64-.41.76-3.32,7.31-4.14,8.06-.37,3.38.85,6.86,1.56,10.44,2.14,4.27,2.45,8.38,5.51,12.13,8.48,1.61,5.44,3.2,6.7,4.77,3.8,1.98-.99,2.98.49,3,4.43,0,5.53-.01,11.07,0,16.6-3.95-2.59-2.47.58-4.03,1.14-.65.24-2.94-.4-3.46-.73-1.29-.81-.79-4.59-2.6-5.21-.24-.08-3.99-.61-4.34-.6-1.09.02-1.74,1.01-2.32.92-4.26-.68-8.79-1.61-13.28-1.41-1.81.08-6.91.41-5.51,2.86.21.36,1.73.36,1.87,1.83.25,2.68-5.02,3.49-6.37,1.2.03-11.55,0-23.12,0-34.67Z"/>
      <path class="cls-111" d="M272.25,179.94c.74-.14,1.52-.12,2.36.05,3.95-2.04,7.1-1.61,10.95.35,4.65-.25,7.86,1.29,9.64,4.62l.88-.25c3.97-4.5,7.98-4.79,11.62.19,1-1.86,4.58-2.78,4.59-.07,0,8.46,0,16.93,0,25.39,0,1.46,0,2.93,0,4.39-.73-.89-.36-3.16-1.5-3.86s-1.04,1.54-2.26,1.85c-3.68.94-4.03-4.94-5.23-6.34-.71-.83-2.38-1.23-3.39-1.98-3-2.23-6.23-5.32-9.94-6.17-2.25-.52-7.2.11-8.77-1.73-.53-.63-.21-1.98-1.94-2.14-.21-.02-3.47.52-3.62.63-1.25.95-.24,3.39-3.4,1.68,0-5.53,0-11.07,0-16.6Z"/>
      <path class="cls-11" d="M272.25,179.94c0-9.76,0-19.54,0-29.29l1.43,3.67c-.04.68-.8,1.22-.93,1.96-.34,1.86.65.85,1.29,1.34.46.35.26,1.12,1.37,1.35,1.92.38,5.19-1.47,6.36.97.78,1.63-.43,2.6,2.34,3.52,5.03,1.68.82-2.97,2.38-3.95.58-.37,4.78-.15,5.58.4,2.25,1.53-3.33,3.07-2.72,5.14.48,1.61,5.9-.17,7.09,1.71.62.98-2.6,2.88-.38,3.91,5.18,2.41,5.01-1.68,6.3-2.48.76-.47,2.17-.35,3.1-.69,3.36-1.25,5.51-5.19,3.91-8.54l2.93,1.95c0,7.97,0,15.96,0,23.93-.67-1.22-.44-.74-1.35-.66-2.91.24-1.98,1.25-2.81,1.62-1.29.56-1.23-.83-1.99-1.37-3.69-2.67-3.48-3.32-7.48-.77-1.4.89-1.85,2.74-4.11,2.19-.4-.1-1.13-3.26-3.59-3.83-1.64-.38-3.73-.27-5.63-.72s-3.28-1.82-5.99-1.73c-2.97.1-4.74,2.92-7.07.39Z"/>
      <path class="cls-11" d="M296.17,151.63l-4.86,3.19c-2.35,1.07-5.06.16-7.05.27-4.5.25-10.05,2.96-9.08-4.44,7,.12,14.05-.25,20.99.98Z"/>
      <path class="cls-124" d="M41.29,61.29c.46,2.09.46,4.21,0,6.35,0,.33,0,.65,0,.98.45,6.89.73,13.8.86,20.73l-.86,1.24v14.65c-.04.81.03,1.63,0,2.44h-.49c-.36-17.09-.36-34.18,0-51.27h.49c-.14,1.55.05,3.29,0,4.88Z"/>
      <path class="cls-116" d="M40.8,107.67v2.44c-.87-.81-.48-2.68-.49-3.91-.05-6.01,0-12.05,0-18.07,0-5.69,0-11.4,0-17.09-.72-2.61-.72-5.38,0-8.3,0-2.01-.41-4.73.49-6.35,0,17.08,0,34.19,0,51.27Z"/>
      <path class="cls-103" d="M40.8,189.22h-.49c-.01-3.25.01-6.52,0-9.77-.03-7.15,0-14.33,0-21.48h.49v31.25Z"/>
      <path class="cls-151" d="M41.29,180.92v-3.91l.49-.49c-.05.94.57,3.32-.49,4.39Z"/>
      <path class="cls-69" d="M243.44,77.4c2.59-1.26,1.85,2.71.13,3.71.04.56.53,3.45,1.63,2.51,4.37-5.31,11.98-13.38,19.38-12.78.28-5.06,7.46-4.49,3.28.21-10.44,13.1-21.52,25.7-32.23,38.57-.43.52-.69,1.12-.98,1.46.08,1.96-.97,3.17-2.93,3.42-.19.46-.52.94-.98,1.46.13.46-.03.62-.49.49-2.46,2.26-4.65,4.81-6.84,7.32-1.3,1.51-2.03-.39-2.39-1.87-.68,2.03-1.85,2.97-3.93,3.47-4.07,3.18-8.76,5.23-14.04,6.15-2,1.77-5.94,3.28-5.52-.43.72-3.18,3.34-6.59,6.35-7.81-.8-1.18.63-3.15,1.95-2.44,4.26-7.34,10.49-14.19,17.09-19.53,5.6-8.88,12.64-16.97,20.51-23.93Z"/>
      <path class="cls-129" d="M197.54,131.11c2.7,3.11,2.72.25,5.51-.6,6.3-1.94,7.66-1.32,13.27-5.76.78-.62,1.95-.58,2.69-1.21s.96-2.34,1.73-2.67c1.9-.81.7,2.56,2.68,2.92-8.02,9.22-15.91,18.62-23.93,27.83l-.98.86c-2.54-.75-4.99-1.69-7.32-2.81-1.99-1.7-3.77-3.04-5.86-4.88,1.05.07,1.8-1.46,2.42-2.22,3.19-3.88,6.54-7.63,9.79-11.45Z"/>
      <path class="cls-8" d="M196.56,154.55c.35.3.63.68.98.98-1.75.67.29,2.64-1.46,3.91-.57-.48-.99-1.08-1.46-1.46-1.01-.82-2.68-1.53-3.91-2.44,2.23-.3.82-2.24,1.95-3.91,1.6-.54,4.14,1.2,3.91,2.93Z"/>
      <path class="cls-104" d="M199.49,151.62c-.9,1.03-1.26,2.89-2.93,2.93-1.23-1.04-2.69-1.88-3.91-2.93-.48-.41-1-1.56-1.46-1.95,3.11-.68,5.43,1.8,8.3,1.95Z"/>
      <path class="cls-90" d="M234.65,111.09c.82,1.3.58,3.66-.28,4.85-.75,1.03-5.07,4.55-4.11.52.17-.15.32-.34.49-.49.61-.67.94-1.16.98-1.46.96-1.15,1.98-2.28,2.93-3.42Z"/>
      <path class="cls-134" d="M284.45,51.52v.49l-16.6,19.04c-1.29-.17,1.68-1.74.97-2.44-.06-.06-1.61-.32-1.73-.3-1.72.26-1.54,3.56-1.69,3.72s-2.47-.52-3.11-.48c-3.44.21-12.62,8.07-15.11,10.79-.67.73-.44,2.07-2.15,2.31s-2.24-1.44-2.09-2.86l-1.46.49c-.77-.75,4.73-3.48,1.95-4.88l.46-2.08c7.08-9.54,15.3-19.91,23.42-28.55.2-.22.53-.33.88-.44s.73-.16,1.11-.19c1.11-1.1,2.81-1.79,3.91-2.93.86.62,2.12,1.16,3.16,1.97,2.54,1.98,5.03,5.46,8.07,6.33Z"/>
      <path class="cls-48" d="M85.72,31.99c.11,1.03-1.66.23-1.95.49-.17.15.78,2.25.49,2.92-1.1-.16-6.07.92-6.35-.74-.1-.59,1.47-1.57.49-2.67h7.32Z"/>
      <path class="cls-48" d="M133.57,35.4c-.33.49-4.64,1.19-3.9-1.21.49-1.59,5.17-.71,3.9,1.21Z"/>
      <path class="cls-48" d="M66.68,31.99c.49.02.98-.02,1.46,0v.48c-1.33-.21-3.42.57-4.39-.48.87-.4,2.06-.4,2.93,0Z"/>
      <path class="cls-114" d="M63.26,31.99c-.67.21-2.14,1.75-2.93.49.99-.3,1.83-.72,2.93-.49Z"/>
      <rect class="cls-48" x="131.14" y="32" width="2.92" height=".48"/>
      <path class="cls-66" d="M65.22,31.5c.48-.04.98.02,1.46,0v.49c-.97-.04-1.96.03-2.93,0v-.49c.36-.1,1.01.04,1.46,0Z"/>
      <path class="cls-13" d="M269.32,46.15c-8.55,8.44-17.82,21.73-25.88,31.25-6.78,8.01-13.7,15.93-20.51,23.93-1.28.06-1.43-.74-.48-2.39l-3.17-.5c-2.24-.3-3.14-1.13-2.7-2.48,2.62-3.07,5.18-6.22,7.81-9.28,4.21-4.89,8.47-9.79,12.7-14.65,3.22-3.7,6.53-7.48,9.77-11.23.36-.42,1.18-.83,1.71-1.45,4.71-5.46,9.03-11.3,13.91-16.61,1.87-1.32,5.71,1.72,6.84,3.42Z"/>
      <path class="cls-14" d="M197.05,119.88c1.65,1.45,3.82,2.2,6.53,2.24l.31,1.17c-2.17,2.53-4.18,5.26-6.35,7.81-.64-.74-.9-1.59-1.48-2.18-1.12-1.13-2.71-.51-2.9-3.5-.06-.92,2.46-5.33,2.92-5.55.2-.09.68.06.98,0Z"/>
      <path class="cls-125" d="M222.93,101.33c-5.61,6.58-11.5,13.01-17.09,19.53-2.38,1.55-4.41-4.29-4.88-6.35,1.14-1.45,2.25-2.97,3.42-4.39,3.93-4.81,8.17-9.43,12.21-14.16,1.29,1.94,5.51,1.63,6.37,2.18,1.46.93-.85,2.4-.02,3.2Z"/>
      <path class="cls-44" d="M200.96,114.51c2.48,1.44,2.18,5.44,4.88,6.35-.55.65-1.22,1.58-1.95,2.44-2.13-1.14-7.09.1-6.84-3.42.12-1.72,2.84-4.01,3.91-5.37Z"/>
      <path class="cls-24" d="M47.64,56.89c-.79,6.21-.14,12.66-.83,19.35-.28,2.72,2.14,7.59-.11,10.1-.48.53-1.24.2-1.9,1.15-.92,1.31-1.2,3.96-1.07,5.54-.62-.65-1.9.09-1.95,0-.06-.11-.46-2.18-.49-2.45-.71-6.18-.08-15.46,0-21.97l.98,8.3c.32-.2,1.32-.49,1.38-.58.77-1.14-.4-14.63.07-17.15l3.92-2.3Z"/>
      <path class="cls-28" d="M1.25,81.31c.07-3.41-.05-6.85,0-10.26,1.68.29,4.54-.41,6,0,.48.13.57,1.08,1.11,1.42,2.17,1.36,5.49-.28,8.05.34.45-.34,1.15-4.24.83-4.59-.18-.2-.79-.04-.84-.11-.86-1.13,1.16-.95,1.8-1.34.92-.56,1.56-1.41,2.57-1.84.78-.33,2.21-.01,2.75-.7.64-.81-.88-5.5,1.29-6.5.56-.26,5.24-.92,5.98-.88.4.02,3.99,1.11,4.17,1.25.58.44.42,1.71.95,2.47.59.85,1.85,1.47,2.4,2.48s.38,2.3,1.29,3.11l.73-3.42c0,2.76,0,5.54,0,8.3l-.74,2.45c-1.48-.04-3.82-3.9-6.49-2.34-.23.14-.4,1.02-.79,1.38-.56.51-1.75,1.06-1.98,1.46-1.14,1.95-.85,6.79-4.52,7.21-.92.11-1.83-.42-2.8-.41-7.27.09-14.5-.09-21.75.51Z"/>
      <path class="cls-24" d="M41.29,67.64c.03-2.11-.07-4.24,0-6.35,1.28.73.53,5.03,0,6.35Z"/>
      <path class="cls-103" d="M39.82,164.31c-1.63-.55-.31-2.17-.48-3.42l.48.72v2.69Z"/>
      <path class="cls-68" d="M230.74,115.97c-.15-.98.66-1.09.98-1.46l.48.24c-.34.58-1.01.83-1.46,1.22Z"/>
      <path class="cls-136" d="M27.62,65.19c-.56-.48,2.67-5.51,4.65-3.43.24.26,1.12,2.48,1.09,2.72-.28,1.86-4.52.52-5.74.71Z"/>
    </g>
  </g>
</svg>